<?xml version="1.0" encoding="UTF-8"?>
<svg version="1.1" xmlns="http://www.w3.org/2000/svg" width="500" height="500">
<path d="M0 0 C13.87591907 11.72094679 22.20148034 27.44539553 23.9375 45.5 C24.2675 45.83 24.5975 46.16 24.9375 46.5 C26.35476634 46.49394331 27.77187696 46.44349789 29.1875 46.375 C43.87985077 46.29116348 56.09585109 52.03254326 66.6484375 62.015625 C76.95025342 73.19643545 81.30562846 86.13716156 81.15234375 101.125 C80.26297238 115.09621564 73.44254552 126.65360291 63.50048828 136.16943359 C60.11829063 139.04868651 56.23601669 141.04417685 52.2734375 143 C49.77424437 144.27869266 49.77424437 144.27869266 49.1015625 146.6875 C49.02035156 147.5846875 49.02035156 147.5846875 48.9375 148.5 C49.61296875 148.52578125 50.2884375 148.5515625 50.984375 148.578125 C58.31458377 149.04420764 58.31458377 149.04420764 61.5 151.375 C63.62478515 154.51598675 64.06400221 157.05875743 64.08276367 160.75610352 C64.08914352 161.61031387 64.09552338 162.46452423 64.10209656 163.34461975 C64.10376579 164.72284157 64.10376579 164.72284157 64.10546875 166.12890625 C64.10879715 167.07434799 64.11212555 168.01978973 64.11555481 168.99388123 C64.12061671 170.99192824 64.12296336 172.98998369 64.12280273 174.98803711 C64.12499394 178.05401387 64.14317032 181.11963357 64.16210938 184.18554688 C64.16504243 186.12499877 64.16702781 188.06445237 64.16796875 190.00390625 C64.17515427 190.92474503 64.18233978 191.8455838 64.18974304 192.79432678 C64.18666641 193.64538498 64.18358978 194.49644318 64.18041992 195.37329102 C64.18184494 196.12369156 64.18326996 196.8740921 64.18473816 197.64723206 C63.9375 199.5 63.9375 199.5 61.9375 201.5 C59.39520841 201.67201285 56.97600004 201.73257617 54.4375 201.6875 C53.74785156 201.68685547 53.05820312 201.68621094 52.34765625 201.68554688 C47.21861049 201.64055525 47.21861049 201.64055525 44.9375 200.5 C44.9375 195.55 44.9375 190.6 44.9375 185.5 C-11.4925 185.5 -67.9225 185.5 -126.0625 185.5 C-126.0625 190.45 -126.0625 195.4 -126.0625 200.5 C-127.88366003 202.32116003 -130.36921764 201.6323508 -132.7890625 201.63671875 C-133.53929687 201.63285156 -134.28953125 201.62898437 -135.0625 201.625 C-135.81273437 201.62886719 -136.56296875 201.63273438 -137.3359375 201.63671875 C-142.93588947 201.62661053 -142.93588947 201.62661053 -144.0625 200.5 C-144.18572758 198.72096643 -144.24039019 196.93713797 -144.26782227 195.15405273 C-144.28776749 194.0129454 -144.30771271 192.87183807 -144.32826233 191.69615173 C-144.34497482 190.4545076 -144.36168732 189.21286346 -144.37890625 187.93359375 C-144.39968735 186.66983414 -144.42046844 185.40607452 -144.44187927 184.10401917 C-144.49633714 180.73881367 -144.5465428 177.37359827 -144.59472656 174.00830078 C-144.64489759 170.57644099 -144.70060655 167.14467169 -144.75585938 163.71289062 C-144.86320191 156.97533239 -144.96494325 150.23770664 -145.0625 143.5 C-145.75106583 143.16212967 -146.43963165 142.82425934 -147.14906311 142.47615051 C-148.05128098 142.03002914 -148.95349884 141.58390778 -149.88305664 141.12426758 C-150.77787247 140.68327225 -151.67268829 140.24227692 -152.59461975 139.78791809 C-162.11465892 134.81967432 -168.71411867 124.52622659 -172.0625 114.5 C-174.93161895 102.84905076 -173.39880611 91.22896012 -167.5546875 80.8125 C-161.60118645 71.72994955 -154.32271447 65.18688558 -144.0625 61.5 C-144.10890625 60.68917969 -144.1553125 59.87835938 -144.203125 59.04296875 C-144.52381171 49.20475866 -143.20412257 41.11604943 -137.0625 33.1875 C-130.99112526 26.786875 -122.08172878 22.75096144 -113.3125 22.3125 C-108.99297729 22.35309702 -105.20511544 23.31639559 -101.0625 24.5 C-100.85625 23.695625 -100.65 22.89125 -100.4375 22.0625 C-98.61811262 17.3486327 -96.03669035 13.56264696 -93.0625 9.5 C-92.58167969 8.82710937 -92.10085937 8.15421875 -91.60546875 7.4609375 C-82.33136432 -4.32539269 -66.23307124 -11.77818755 -51.70703125 -14.21875 C-32.63014802 -16.24760612 -15.34609721 -11.37907889 0 0 Z M-68.0625 -4.5 C-63.88662255 -3.10804085 -61.92775224 -4.67676781 -58.0625 -6.5 C-62.23837745 -7.89195915 -64.19724776 -6.32323219 -68.0625 -4.5 Z M-146.0625 66.5 C-148.0425 67.82 -150.0225 69.14 -152.0625 70.5 C-151.0725 70.995 -151.0725 70.995 -150.0625 71.5 C-148.0825 70.18 -146.1025 68.86 -144.0625 67.5 C-144.7225 67.17 -145.3825 66.84 -146.0625 66.5 Z M-154.0625 71.5 C-154.3925 72.16 -154.7225 72.82 -155.0625 73.5 C-154.0725 73.17 -153.0825 72.84 -152.0625 72.5 C-152.7225 72.17 -153.3825 71.84 -154.0625 71.5 Z " fill="#FDFCFD" transform="translate(296.0625,156.5)"/>
<path d="M0 0 C13.87591907 11.72094679 22.20148034 27.44539553 23.9375 45.5 C24.2675 45.83 24.5975 46.16 24.9375 46.5 C26.35476634 46.49394331 27.77187696 46.44349789 29.1875 46.375 C43.87985077 46.29116348 56.09585109 52.03254326 66.6484375 62.015625 C76.95025342 73.19643545 81.30562846 86.13716156 81.15234375 101.125 C80.26297238 115.09621564 73.44254552 126.65360291 63.50048828 136.16943359 C60.11829063 139.04868651 56.23601669 141.04417685 52.2734375 143 C49.77424437 144.27869266 49.77424437 144.27869266 49.1015625 146.6875 C49.02035156 147.5846875 49.02035156 147.5846875 48.9375 148.5 C49.61296875 148.52578125 50.2884375 148.5515625 50.984375 148.578125 C58.31458377 149.04420764 58.31458377 149.04420764 61.5 151.375 C63.62478515 154.51598675 64.06400221 157.05875743 64.08276367 160.75610352 C64.08914352 161.61031387 64.09552338 162.46452423 64.10209656 163.34461975 C64.10376579 164.72284157 64.10376579 164.72284157 64.10546875 166.12890625 C64.10879715 167.07434799 64.11212555 168.01978973 64.11555481 168.99388123 C64.12061671 170.99192824 64.12296336 172.98998369 64.12280273 174.98803711 C64.12499394 178.05401387 64.14317032 181.11963357 64.16210938 184.18554688 C64.16504243 186.12499877 64.16702781 188.06445237 64.16796875 190.00390625 C64.17515427 190.92474503 64.18233978 191.8455838 64.18974304 192.79432678 C64.18666641 193.64538498 64.18358978 194.49644318 64.18041992 195.37329102 C64.18184494 196.12369156 64.18326996 196.8740921 64.18473816 197.64723206 C63.9375 199.5 63.9375 199.5 61.9375 201.5 C59.39520841 201.67201285 56.97600004 201.73257617 54.4375 201.6875 C53.74785156 201.68685547 53.05820312 201.68621094 52.34765625 201.68554688 C47.21861049 201.64055525 47.21861049 201.64055525 44.9375 200.5 C44.9375 195.55 44.9375 190.6 44.9375 185.5 C-11.4925 185.5 -67.9225 185.5 -126.0625 185.5 C-126.0625 190.45 -126.0625 195.4 -126.0625 200.5 C-127.88366003 202.32116003 -130.36921764 201.6323508 -132.7890625 201.63671875 C-133.53929687 201.63285156 -134.28953125 201.62898437 -135.0625 201.625 C-135.81273437 201.62886719 -136.56296875 201.63273438 -137.3359375 201.63671875 C-142.93588947 201.62661053 -142.93588947 201.62661053 -144.0625 200.5 C-144.18572758 198.72096643 -144.24039019 196.93713797 -144.26782227 195.15405273 C-144.28776749 194.0129454 -144.30771271 192.87183807 -144.32826233 191.69615173 C-144.34497482 190.4545076 -144.36168732 189.21286346 -144.37890625 187.93359375 C-144.39968735 186.66983414 -144.42046844 185.40607452 -144.44187927 184.10401917 C-144.49633714 180.73881367 -144.5465428 177.37359827 -144.59472656 174.00830078 C-144.64489759 170.57644099 -144.70060655 167.14467169 -144.75585938 163.71289062 C-144.86320191 156.97533239 -144.96494325 150.23770664 -145.0625 143.5 C-145.75106583 143.16212967 -146.43963165 142.82425934 -147.14906311 142.47615051 C-148.05128098 142.03002914 -148.95349884 141.58390778 -149.88305664 141.12426758 C-150.77787247 140.68327225 -151.67268829 140.24227692 -152.59461975 139.78791809 C-162.11465892 134.81967432 -168.71411867 124.52622659 -172.0625 114.5 C-174.93161895 102.84905076 -173.39880611 91.22896012 -167.5546875 80.8125 C-161.60118645 71.72994955 -154.32271447 65.18688558 -144.0625 61.5 C-144.10890625 60.68917969 -144.1553125 59.87835938 -144.203125 59.04296875 C-144.52381171 49.20475866 -143.20412257 41.11604943 -137.0625 33.1875 C-130.99112526 26.786875 -122.08172878 22.75096144 -113.3125 22.3125 C-108.99297729 22.35309702 -105.20511544 23.31639559 -101.0625 24.5 C-100.85625 23.695625 -100.65 22.89125 -100.4375 22.0625 C-98.61811262 17.3486327 -96.03669035 13.56264696 -93.0625 9.5 C-92.58167969 8.82710937 -92.10085937 8.15421875 -91.60546875 7.4609375 C-82.33136432 -4.32539269 -66.23307124 -11.77818755 -51.70703125 -14.21875 C-32.63014802 -16.24760612 -15.34609721 -11.37907889 0 0 Z M-58.0625 -7.5 C-59.031875 -7.355625 -60.00125 -7.21125 -61 -7.0625 C-73.65817416 -4.73752924 -85.11370073 4.37855715 -92.3046875 14.7265625 C-96.83742166 21.63395528 -96.83742166 21.63395528 -99.0625 29.5 C-99.59617187 29.2834375 -100.12984375 29.066875 -100.6796875 28.84375 C-108.17604129 26.04234443 -115.09146123 25.03452578 -122.6875 28.0625 C-130.49747485 31.97439891 -137.25761852 38.08535557 -140.0625 46.5 C-140.1579687 48.81090417 -140.19235387 51.12462975 -140.1875 53.4375 C-140.19007813 54.66339844 -140.19265625 55.88929688 -140.1953125 57.15234375 C-140.08917535 59.82762431 -139.86167654 61.96927428 -139.0625 64.5 C-139.78566406 64.60828125 -140.50882813 64.7165625 -141.25390625 64.828125 C-149.1125501 66.70807874 -157.44575758 72.57765249 -161.91015625 79.26953125 C-168.68982652 90.55970084 -171.1105938 101.06005495 -168.29296875 114.046875 C-164.80506612 124.35036122 -158.49055293 132.4143996 -148.73046875 137.3125 C-147.17889115 138.05100833 -145.62432178 138.78341063 -144.0625 139.5 C-144.0531543 138.36981445 -144.04380859 137.23962891 -144.03417969 136.07519531 C-143.99427608 131.87785579 -143.92851674 127.68124896 -143.85498047 123.484375 C-143.8267729 121.66871561 -143.80555726 119.85293348 -143.79150391 118.03710938 C-143.77007091 115.42514211 -143.72342115 112.81465026 -143.671875 110.203125 C-143.67003204 108.98728729 -143.67003204 108.98728729 -143.66815186 107.74688721 C-143.57341507 104.09318248 -143.39688673 101.93885057 -141.14941406 98.98925781 C-138.88622681 97.37420842 -137.81233197 96.95703388 -135.0625 97 C-134.0725 96.98453125 -134.0725 96.98453125 -133.0625 96.96875 C-130.0230279 97.77610978 -128.97226797 98.99361232 -127.0625 101.5 C-126.64470029 104.51727626 -126.45770157 107.1838672 -126.453125 110.203125 C-126.43658875 111.04091492 -126.42005249 111.87870483 -126.40301514 112.74188232 C-126.35452501 115.41132937 -126.33316255 118.08020674 -126.3125 120.75 C-126.28434107 122.56252868 -126.25441375 124.3750308 -126.22265625 126.1875 C-126.14544244 130.62526224 -126.10493572 135.06122419 -126.0625 139.5 C-119.7925 139.5 -113.5225 139.5 -107.0625 139.5 C-109.02965805 137.53284195 -110.39218098 136.77383787 -112.875 135.625 C-117.05305604 133.57767671 -120.71172056 131.49400775 -123.375 127.5625 C-124.26764857 124.88455429 -124.62233283 123.29916413 -124.0625 120.5 C-120.41890121 116.75519014 -117.48508016 116.20914531 -112.3125 116.0625 C-102.42052727 116.44108167 -94.00489685 119.53955906 -86.0625 125.5 C-83.80047169 128.06730204 -83.11003672 129.04364751 -82.75 132.5 C-83.0625 135.5 -83.0625 135.5 -85.0625 139.5 C-82.0925 139.5 -79.1225 139.5 -76.0625 139.5 C-75.711875 138.4275 -75.36125 137.355 -75 136.25 C-73.8114328 132.61438267 -71.46486674 131.16407606 -68.18496513 129.3573761 C-64.25601736 127.77026597 -60.30848049 127.94504726 -56.12329102 127.98242188 C-54.66336731 127.97190796 -54.66336731 127.97190796 -53.1739502 127.96118164 C-49.9711414 127.94364194 -46.76922334 127.95521142 -43.56640625 127.96875 C-41.33112927 127.96605372 -39.09585343 127.96217017 -36.86058044 127.95715332 C-32.18094695 127.95126351 -27.50161935 127.95980403 -22.82202148 127.97851562 C-16.83548627 128.00129126 -10.84966896 127.98818706 -4.86316013 127.96422577 C-0.24849582 127.94974273 4.3659995 127.95438558 8.98066902 127.96473694 C11.18738961 127.96739797 13.39412573 127.96415651 15.60082817 127.95481873 C18.6905951 127.94461363 21.77921458 127.96021094 24.86889648 127.98242188 C25.77356155 127.97432495 26.67822662 127.96622803 27.61030579 127.95788574 C33.5091376 128.03609643 38.01394886 129.15187712 42.9375 132.5 C45.29550258 135.04416067 47.0149859 137.61622885 48.9375 140.5 C62.11942631 133.12568467 71.13806669 125.04022081 75.875 110.1875 C78.41850186 99.17095756 77.81302693 88.69152202 72.9375 78.5 C72.30134766 77.09427734 72.30134766 77.09427734 71.65234375 75.66015625 C65.30590933 62.77282843 54.62227608 56.87104476 41.7890625 51.62109375 C35.19457362 49.56211578 27.77640342 50.3397132 20.9375 50.5 C20.77894531 49.41203125 20.62039063 48.3240625 20.45703125 47.203125 C17.88863972 30.58356265 12.07972996 14.78268957 -1.1875 3.625 C-17.22129962 -7.55609213 -39.13441682 -16.26300147 -58.0625 -7.5 Z " fill="#623587" transform="translate(296.0625,156.5)"/>
<path d="M0 0 C0.84246277 -0.0071553 1.68492554 -0.01431061 2.55291748 -0.02168274 C3.94227257 -0.02571609 3.94227257 -0.02571609 5.35969543 -0.02983093 C6.33385406 -0.03640213 7.3080127 -0.04297333 8.31169128 -0.04974365 C11.54619926 -0.06950685 14.7806607 -0.08114698 18.01521301 -0.09111023 C19.11893061 -0.09518576 20.2226482 -0.09926128 21.35981178 -0.10346031 C27.20335835 -0.12433553 33.04688134 -0.13863007 38.89045715 -0.147995 C44.92535628 -0.15905275 50.95988602 -0.19344154 56.99465466 -0.23316669 C61.63497602 -0.25932202 66.27520932 -0.26768597 70.91559792 -0.27127647 C73.139916 -0.27614647 75.36423005 -0.28777214 77.58847618 -0.30631447 C80.7052209 -0.33067852 83.8210095 -0.32974537 86.93782043 -0.32279968 C87.853936 -0.33560974 88.77005157 -0.3484198 89.71392822 -0.36161804 C95.64720935 -0.31351922 99.11863745 0.67342886 103.97224426 4.14717102 C108.37631786 9.80240189 108.59072774 14.69446205 108.47224426 21.70967102 C108.49544739 23.08929016 108.49544739 23.08929016 108.51911926 24.4967804 C108.48654469 30.16068461 107.97544074 33.81704683 103.97224426 38.14717102 C98.70533333 41.546595 94.17378004 41.58108416 88.11482239 41.55122375 C86.65029884 41.56151863 86.65029884 41.56151863 85.15618896 41.57202148 C81.9384749 41.5902782 78.72124886 41.58645389 75.50349426 41.58076477 C73.26199688 41.58532671 71.0205009 41.59063232 68.77900696 41.59664917 C64.08506074 41.60557778 59.39128469 41.60315942 54.69734192 41.59321594 C48.68482461 41.58171973 42.67289403 41.6019495 36.6604538 41.63113308 C32.03301774 41.64948497 27.40572259 41.64920471 22.77825928 41.64349556 C20.56150489 41.64334226 18.34474099 41.64939373 16.12802124 41.66178703 C13.02819554 41.67667772 9.92945797 41.66603384 6.82966614 41.64888 C5.91623947 41.65854797 5.00281281 41.66821594 4.06170654 41.67817688 C-1.59861548 41.61264362 -4.67065299 40.82989772 -9.02775574 37.14717102 C-12.45152035 32.37727392 -11.43765535 25.88424891 -11.46525574 20.27217102 C-11.49812683 19.10041321 -11.53099792 17.9286554 -11.56486511 16.72138977 C-11.62504044 7.08239612 -11.62504044 7.08239612 -8.62541199 3.38935852 C-5.45352609 0.65152017 -4.06083684 0.02364701 0 0 Z " fill="#DDCFF3" transform="translate(234.0277557373047,287.8528289794922)"/>
<path d="M0 0 C13.87591907 11.72094679 22.20148034 27.44539553 23.9375 45.5 C24.2675 45.83 24.5975 46.16 24.9375 46.5 C26.35476634 46.49394331 27.77187696 46.44349789 29.1875 46.375 C43.87985077 46.29116348 56.09585109 52.03254326 66.6484375 62.015625 C76.95025342 73.19643545 81.30562846 86.13716156 81.15234375 101.125 C80.26297238 115.09621564 73.44254552 126.65360291 63.50048828 136.16943359 C60.11829063 139.04868651 56.23601669 141.04417685 52.2734375 143 C49.77424437 144.27869266 49.77424437 144.27869266 49.1015625 146.6875 C49.02035156 147.5846875 49.02035156 147.5846875 48.9375 148.5 C49.61296875 148.52578125 50.2884375 148.5515625 50.984375 148.578125 C58.31458377 149.04420764 58.31458377 149.04420764 61.5 151.375 C63.62478515 154.51598675 64.06400221 157.05875743 64.08276367 160.75610352 C64.08914352 161.61031387 64.09552338 162.46452423 64.10209656 163.34461975 C64.10376579 164.72284157 64.10376579 164.72284157 64.10546875 166.12890625 C64.10879715 167.07434799 64.11212555 168.01978973 64.11555481 168.99388123 C64.12061671 170.99192824 64.12296336 172.98998369 64.12280273 174.98803711 C64.12499394 178.05401387 64.14317032 181.11963357 64.16210938 184.18554688 C64.16504243 186.12499877 64.16702781 188.06445237 64.16796875 190.00390625 C64.17515427 190.92474503 64.18233978 191.8455838 64.18974304 192.79432678 C64.18666641 193.64538498 64.18358978 194.49644318 64.18041992 195.37329102 C64.18184494 196.12369156 64.18326996 196.8740921 64.18473816 197.64723206 C63.9375 199.5 63.9375 199.5 61.9375 201.5 C59.39520841 201.67201285 56.97600004 201.73257617 54.4375 201.6875 C53.74785156 201.68685547 53.05820312 201.68621094 52.34765625 201.68554688 C47.21861049 201.64055525 47.21861049 201.64055525 44.9375 200.5 C44.9375 195.88 44.9375 191.26 44.9375 186.5 C45.9275 186.17 46.9175 185.84 47.9375 185.5 C47.9375 189.46 47.9375 193.42 47.9375 197.5 C51.8975 197.5 55.8575 197.5 59.9375 197.5 C59.8195767 191.53672101 59.695353 185.57362002 59.56518555 179.6105957 C59.52176759 177.58035896 59.48009774 175.55008408 59.44018555 173.51977539 C59.38264854 170.60811849 59.31890722 167.69665486 59.25390625 164.78515625 C59.22883751 163.41485008 59.22883751 163.41485008 59.20326233 162.01686096 C59.5144315 157.93210684 59.5144315 157.93210684 57.9375 154.5 C54.9675 154.17 51.9975 153.84 48.9375 153.5 C48.6075 163.07 48.2775 172.64 47.9375 182.5 C47.2775 182.17 46.6175 181.84 45.9375 181.5 C45.9375 178.2 45.9375 174.9 45.9375 171.5 C45.03 172.139375 44.1225 172.77875 43.1875 173.4375 C39.1887901 175.97514282 36.33905353 176.61990932 31.66923523 176.64717102 C30.40141708 176.65790398 30.40141708 176.65790398 29.10798645 176.66885376 C27.72941719 176.67288712 27.72941719 176.67288712 26.32299805 176.67700195 C25.34854736 176.68357315 24.37409668 176.69014435 23.37011719 176.69691467 C20.14648357 176.71661994 16.92289645 176.72830326 13.69921875 176.73828125 C12.5973353 176.74235678 11.49545185 176.7464323 10.36017799 176.75063133 C4.52958998 176.77147882 -1.30097459 176.78578708 -7.1315918 176.79516602 C-13.15073932 176.80623623 -19.16951776 176.84064732 -25.18853474 176.88033772 C-29.82027369 176.90648853 -34.45192441 176.91485644 -39.0837307 176.91844749 C-41.30246668 176.92331626 -43.52119864 176.93493845 -45.73986244 176.95348549 C-48.84681071 176.9778468 -51.95279981 176.97691727 -55.05981445 176.9699707 C-56.42927467 176.98918579 -56.42927467 176.98918579 -57.82640076 177.00878906 C-63.75768154 176.96054366 -67.19205921 175.93451399 -72.0625 172.5 C-76.0625 168.19230769 -76.0625 168.19230769 -76.0625 165.5 C-76.65940643 165.50222061 -77.25631287 165.50444122 -77.87130737 165.50672913 C-84.06768192 165.52880297 -90.26404535 165.54391542 -96.46044922 165.55493164 C-98.77490696 165.55996943 -101.0893615 165.56679981 -103.40380859 165.57543945 C-106.7249429 165.58752924 -110.04603525 165.59323375 -113.3671875 165.59765625 C-114.92661575 165.60539818 -114.92661575 165.60539818 -116.51754761 165.61329651 C-117.47839264 165.61337204 -118.43923767 165.61344757 -119.42919922 165.61352539 C-120.70160965 165.61685631 -120.70160965 165.61685631 -121.99972534 165.62025452 C-124.0625 165.5 -124.0625 165.5 -126.0625 164.5 C-126.0625 163.51 -126.0625 162.52 -126.0625 161.5 C-109.8925 161.5 -93.7225 161.5 -77.0625 161.5 C-77.0625 155.56 -77.0625 149.62 -77.0625 143.5 C-93.2325 143.5 -109.4025 143.5 -126.0625 143.5 C-126.0625 143.17 -126.0625 142.84 -126.0625 142.5 C-110.2225 142.5 -94.3825 142.5 -78.0625 142.5 C-78.0625 141.84 -78.0625 141.18 -78.0625 140.5 C-77.4025 140.5 -76.7425 140.5 -76.0625 140.5 C-76.0625 139.51 -76.0625 138.52 -76.0625 137.5 C-74.80827882 133.05321582 -72.84885731 131.08580499 -69.0625 128.5 C-66.33610059 127.5912002 -64.7264284 127.36921381 -61.92121887 127.35282898 C-61.0788266 127.34567368 -60.23643433 127.33851837 -59.36851501 127.33114624 C-57.98690941 127.32711288 -57.98690941 127.32711288 -56.57739258 127.32299805 C-55.60469421 127.31642685 -54.63199585 127.30985565 -53.62982178 127.30308533 C-50.4055575 127.28334924 -47.18133983 127.27168825 -43.95703125 127.26171875 C-42.30470269 127.25560546 -42.30470269 127.25560546 -40.61899376 127.24936867 C-34.78725751 127.2285054 -28.9555448 127.21420545 -23.1237793 127.20483398 C-17.10582204 127.19377641 -11.08823523 127.1593844 -5.07040882 127.11966228 C-0.43862734 127.09349078 4.19306601 127.08514159 8.82491493 127.08155251 C11.04282441 127.07668701 13.26072996 127.06507414 15.47856712 127.04651451 C18.58781466 127.02211516 21.69610556 127.02309 24.80541992 127.0300293 C25.71636917 127.01721924 26.62731842 127.00440918 27.56587219 126.99121094 C34.10339815 127.0442125 39.6850297 128.33823961 44.49923992 133.01818371 C46.24484732 135.05696245 47.73565088 137.09630177 48.9375 139.5 C61.79785545 132.20297739 70.22267424 124.82157633 74.875 110.1875 C77.41745714 99.1754825 76.81844729 88.68632477 71.9375 78.5 C71.28394531 77.076875 71.28394531 77.076875 70.6171875 75.625 C64.39938156 63.12143396 54.28198585 57.74292886 41.78515625 52.6171875 C36.08338435 50.84552096 29.93723739 51.39360201 24.03515625 51.52734375 C20.9375 51.5 20.9375 51.5 19.9375 50.5 C19.62438682 48.66151789 19.3166565 46.82192591 19.03881836 44.9777832 C16.69335256 29.68743248 10.69695716 14.23027769 -1.6875 4.125 C-3.11092945 3.19429613 -4.57705858 2.32814546 -6.0625 1.5 C-6.62743164 1.18337402 -7.19236328 0.86674805 -7.77441406 0.54052734 C-21.4871757 -7.0269372 -36.78942795 -12.80824303 -52.6484375 -8.85546875 C-54.48270398 -8.1421429 -56.27652598 -7.32683983 -58.0625 -6.5 C-59.031875 -6.355625 -60.00125 -6.21125 -61 -6.0625 C-71.70952988 -4.09544349 -82.29075169 3.09524159 -89.0625 11.5 C-92.93940711 17.22339024 -96.67420783 22.97765893 -99.0625 29.5 C-99.59617187 29.355625 -100.12984375 29.21125 -100.6796875 29.0625 C-109.19201241 26.94178237 -116.85616848 26.12103189 -124.89453125 30.17578125 C-131.62783418 34.28855547 -136.44615191 38.94877146 -139.0625 46.5 C-139.49472211 49.69436541 -139.44865554 52.78463464 -139.3125 56 C-139.29445312 56.82242188 -139.27640625 57.64484375 -139.2578125 58.4921875 C-139.2112283 60.49530804 -139.13950699 62.49781821 -139.0625 64.5 C-139.8359375 64.86351562 -140.609375 65.22703125 -141.40625 65.6015625 C-154.41632481 71.88117782 -161.68413412 77.61998045 -167.23046875 91.40234375 C-170.15215246 102.27978593 -168.54646677 113.75924783 -163.0625 123.5 C-158.61517247 129.77959206 -153.92475612 134.24435286 -146.8125 137.26953125 C-145.0625 138.5 -145.0625 138.5 -144.3125 141.13671875 C-144.18875 142.30654297 -144.18875 142.30654297 -144.0625 143.5 C-156.19169647 139.60132971 -163.41489592 132.19249293 -169.41796875 120.96484375 C-174.03442568 110.98196396 -174.69892165 99.81737793 -171.5 89.25 C-167.19436891 77.92890006 -159.18180721 68.02040324 -148 63 C-146.69440911 62.4822272 -145.38426704 61.97496121 -144.0625 61.5 C-144.10890625 60.68917969 -144.1553125 59.87835938 -144.203125 59.04296875 C-144.52381171 49.20475866 -143.20412257 41.11604943 -137.0625 33.1875 C-130.99112526 26.786875 -122.08172878 22.75096144 -113.3125 22.3125 C-108.99297729 22.35309702 -105.20511544 23.31639559 -101.0625 24.5 C-100.85625 23.695625 -100.65 22.89125 -100.4375 22.0625 C-98.61811262 17.3486327 -96.03669035 13.56264696 -93.0625 9.5 C-92.58167969 8.82710937 -92.10085937 8.15421875 -91.60546875 7.4609375 C-82.33136432 -4.32539269 -66.23307124 -11.77818755 -51.70703125 -14.21875 C-32.63014802 -16.24760612 -15.34609721 -11.37907889 0 0 Z M-72.0625 136.5 C-74.2169047 140.8088094 -73.33675104 146.51732864 -73.375 151.25 C-73.40400391 152.43078125 -73.43300781 153.6115625 -73.46289062 154.828125 C-73.59526207 163.51017935 -73.59526207 163.51017935 -69.0625 170.5 C-66.20810427 172.21863045 -64.1024951 172.75141648 -60.7875061 172.76069641 C-59.94084885 172.76778122 -59.09419159 172.77486603 -58.22187805 172.78216553 C-57.30126083 172.77968811 -56.38064362 172.77721069 -55.43212891 172.7746582 C-54.45607193 172.77976913 -53.48001495 172.78488007 -52.47438049 172.79014587 C-49.24587888 172.80405261 -46.01759051 172.80308415 -42.7890625 172.80078125 C-40.54470744 172.80466782 -38.30035312 172.80900241 -36.05599976 172.81376648 C-31.35013445 172.8212312 -26.64434416 172.82093574 -21.93847656 172.81567383 C-15.91030956 172.80988152 -9.88245004 172.82680342 -3.85433388 172.8500185 C0.78166497 172.86475694 5.41758981 172.86562733 10.05360794 172.86250877 C12.27594232 172.86302201 14.49828083 172.86826026 16.7205925 172.87832069 C19.83004421 172.89066846 22.93889758 172.88390283 26.04833984 172.87231445 C27.42319298 172.88378006 27.42319298 172.88378006 28.82582092 172.89547729 C33.94958996 172.85330922 37.50810073 172.36458651 41.9375 169.5 C46.63826738 164.41533662 46.54797933 159.6314166 46.4375 153.0625 C46.45296875 152.14662109 46.4684375 151.23074219 46.484375 150.28710938 C46.44928615 144.17726327 45.72714205 140.36624491 41.9375 135.5 C36.22950751 131.42760568 31.87219409 130.91702116 24.96655273 130.96655273 C23.99005768 130.95793716 23.01356262 130.94932159 22.00747681 130.94044495 C18.79507586 130.91783029 15.58355028 130.92451472 12.37109375 130.93359375 C10.13102459 130.92835693 7.89095765 130.92208024 5.65089417 130.91481018 C0.96287639 130.90441482 -3.72483767 130.90895638 -8.4128418 130.92358398 C-14.41761608 130.9407876 -20.42143491 130.91725166 -26.42610264 130.88209438 C-31.04927397 130.86012832 -35.67221629 130.86155974 -40.29542351 130.8698597 C-42.50938911 130.87067931 -44.7233715 130.86381412 -46.93728828 130.84908867 C-50.03243852 130.83165405 -53.12586612 130.84617639 -56.22094727 130.86889648 C-57.13280289 130.85720428 -58.04465851 130.84551208 -58.98414612 130.83346558 C-65.07899416 130.92441779 -67.84426336 132.04364876 -72.0625 136.5 Z " fill="#643B83" transform="translate(296.0625,156.5)"/>
<path d="M0 0 C0.47179687 0.94875 0.94359375 1.8975 1.4296875 2.875 C3.15671397 6.3118686 4.81175185 7.77418347 7.8125 10.125 C15.30194657 16.6085647 19.40740314 25.28515914 21 35 C21.13228524 38.00948922 21.12538824 40.99068231 21 44 C22.0828125 44.0928125 22.0828125 44.0928125 23.1875 44.1875 C27.05182376 45.3038602 28.50570418 46.8490932 31 50 C31.69292241 52.85844106 31.65604794 55.5722022 31.5625 58.5 C31.57345703 59.24636719 31.58441406 59.99273437 31.59570312 60.76171875 C31.54434378 64.6307897 31.2290973 66.62692648 29.16015625 69.99609375 C26.4736355 72.48829112 24.55034671 72.45972985 21 73 C19.6237206 74.91764174 19.6237206 74.91764174 19 77 C17.1496801 78.8503199 14.57527918 78.29140132 12.10546875 78.42578125 C8.99543397 77.79685028 7.94947134 76.47642998 6 74 C5.49829102 70.76367188 5.49829102 70.76367188 5.50390625 66.96875 C5.50245102 66.29581909 5.50099579 65.62288818 5.49949646 64.92956543 C5.501152 63.5107794 5.51267497 62.09197477 5.53344727 60.67333984 C5.56241033 58.50670783 5.55405051 56.34252376 5.54101562 54.17578125 C5.54725358 52.79425899 5.55564498 51.41274443 5.56640625 50.03125 C5.57615479 48.77892578 5.58590332 47.52660156 5.59594727 46.23632812 C6.02223396 42.82191335 6.5669835 41.38886012 9 39 C11.26171875 38.609375 11.26171875 38.609375 13.6875 38.75 C14.49574219 38.78609375 15.30398438 38.8221875 16.13671875 38.859375 C16.75160156 38.90578125 17.36648438 38.9521875 18 39 C15.27765087 29.30163121 12.30271589 20.34420859 5 13 C2.54681141 11.49317227 2.54681141 11.49317227 0 11 C-0.99 11.66 -1.98 12.32 -3 13 C-6.50027743 12.84781402 -9.31874616 12.25190075 -12.609375 11.03515625 C-26.48311878 5.98525729 -41.58465282 5.82867025 -55.08984375 12.00390625 C-59.50003546 13.51343496 -62.6925962 12.43580127 -67 11 C-75.7740969 16.68227228 -79.49076704 26.99280414 -81.58984375 36.796875 C-81.72519531 37.52390625 -81.86054688 38.2509375 -82 39 C-80.9275 38.9175 -79.855 38.835 -78.75 38.75 C-75 39 -75 39 -72.79882812 40.57617188 C-70.37530895 43.84173897 -70.48331534 45.98832755 -70.46875 50.03125 C-70.4649231 50.70418091 -70.46109619 51.37711182 -70.45715332 52.07043457 C-70.4544387 53.4891917 -70.46176866 54.90799927 -70.47851562 56.32666016 C-70.49993725 58.49365203 -70.47870462 60.65732951 -70.453125 62.82421875 C-70.45576836 64.20573646 -70.46089353 65.5872521 -70.46875 66.96875 C-70.47326172 68.22107422 -70.47777344 69.47339844 -70.48242188 70.76367188 C-71.0858954 74.53708935 -71.99710769 75.71763379 -75 78 C-77.90784881 78.70882303 -79.942539 78.33971789 -83 78 C-85 76.625 -85 76.625 -86 75 C-86 74.34 -86 73.68 -86 73 C-87.36125 72.9071875 -87.36125 72.9071875 -88.75 72.8125 C-92.92328052 71.76917987 -93.76302226 70.63926229 -96 67 C-96.59002789 64.14940514 -96.6051168 61.40295628 -96.5625 58.5 C-96.58634766 57.75363281 -96.61019531 57.00726563 -96.63476562 56.23828125 C-96.62384636 52.125357 -96.31583668 50.42185567 -93.77734375 47.03125 C-91.01706572 45.01248126 -89.36787542 44.28867504 -86 44 C-86.08701172 43.01773438 -86.08701172 43.01773438 -86.17578125 42.015625 C-86.73612773 30.68061615 -82.11350086 20.71146119 -75 12 C-72.81366911 9.79079954 -70.60222472 7.71022501 -68 6 C-67.34 6 -66.68 6 -66 6 C-65.96777344 5.07703125 -65.93554688 4.1540625 -65.90234375 3.203125 C-65 0 -65 0 -62.19140625 -1.828125 C-44.16356573 -8.89177834 -16.96118422 -13.17903509 0 0 Z " fill="#424A90" transform="translate(284,186)"/>
<path d="M0 0 C7.04743206 -0.14824695 14.09395817 -0.25717252 21.14257812 -0.32958984 C23.54052538 -0.35977516 25.93836212 -0.40072843 28.3359375 -0.45263672 C31.7815271 -0.52537061 35.22565824 -0.55943975 38.671875 -0.5859375 C39.74491882 -0.61690521 40.81796265 -0.64787292 41.92352295 -0.67977905 C44.73858589 -0.68105386 47.25570517 -0.62917439 50 0 C52.27050781 2.78662109 52.27050781 2.78662109 54 6 C59.65682046 10.10737269 64.05306034 10.57509348 70.92333984 10.50170898 C72.38085411 10.50981346 72.38085411 10.50981346 73.86781311 10.51808167 C77.06583534 10.53054356 80.26295269 10.51409182 83.4609375 10.49609375 C85.69381762 10.49624882 87.926698 10.49773915 90.15957642 10.50050354 C94.83502124 10.50188649 99.51015893 10.48934845 104.18554688 10.46655273 C110.16292533 10.43820177 116.13979239 10.44089808 122.11720848 10.45364285 C126.72761357 10.4606168 131.33790163 10.45279055 135.94829178 10.44038582 C138.15138932 10.43588569 140.35449948 10.43552188 142.55759811 10.43945122 C145.6446151 10.44237939 148.73094162 10.42577832 151.81787109 10.40405273 C153.16947578 10.41080521 153.16947578 10.41080521 154.54838562 10.41769409 C160.59395957 10.3474204 165.34636598 9.15799813 171 7 C171 9.97 171 12.94 171 16 C114.57 16 58.14 16 0 16 C0 10.72 0 5.44 0 0 Z " fill="#BCA9E5" transform="translate(170,322)"/>
<path d="M0 0 C1.45792884 -0.05399736 2.91642712 -0.09279177 4.375 -0.125 C5.18710937 -0.14820313 5.99921875 -0.17140625 6.8359375 -0.1953125 C9 0 9 0 11 2 C11.24050903 3.83499146 11.24050903 3.83499146 11.22705078 6.08251953 C11.22682419 7.34360031 11.22682419 7.34360031 11.22659302 8.63015747 C11.21627045 9.53853363 11.20594788 10.44690979 11.1953125 11.3828125 C11.1924826 12.31221649 11.18965271 13.24162048 11.18673706 14.19918823 C11.17552069 17.1745885 11.1504136 20.14969035 11.125 23.125 C11.11497208 25.13931858 11.1058459 27.15364186 11.09765625 29.16796875 C11.07557661 34.11209456 11.04103693 39.05599665 11 44 C7.04 44 3.08 44 -1 44 C-1 40.04 -1 36.08 -1 32 C-1.99 32.33 -2.98 32.66 -4 33 C-6.2829343 33.08068413 -8.56827485 33.09735203 -10.85258484 33.08229065 C-11.55343557 33.07906152 -12.2542863 33.07583239 -12.97637492 33.07250541 C-15.33025224 33.06041917 -17.68401355 33.04104865 -20.0378418 33.02172852 C-21.72298937 33.01158691 -23.40813969 33.00189311 -25.09329224 32.99261475 C-29.67358477 32.96612194 -34.25381357 32.93334481 -38.83405662 32.89946485 C-43.61866264 32.86513353 -48.40330284 32.83654639 -53.1879425 32.80735779 C-62.25081845 32.75119302 -71.31365159 32.68983979 -80.37648088 32.62663645 C-90.69313678 32.55494062 -101.00982697 32.48900762 -111.32652414 32.42356598 C-132.55106063 32.28880344 -153.77554344 32.14678016 -175 32 C-175.33 30.68 -175.66 29.36 -176 28 C-119.24 28 -62.48 28 -4 28 C-4.33 24.7 -4.66 21.4 -5 18 C-4.34 18 -3.68 18 -3 18 C-2.67 21.3 -2.34 24.6 -2 28 C-1.93941406 26.6490625 -1.87882813 25.298125 -1.81640625 23.90625 C-1.73193324 22.10415905 -1.64728869 20.30207613 -1.5625 18.5 C-1.52318359 17.613125 -1.48386719 16.72625 -1.44335938 15.8125 C-1.18915913 10.49384873 -0.73323663 5.2743744 0 0 Z " fill="#6A378C" transform="translate(345,310)"/>
<path d="M0 0 C0.33 0.99 0.66 1.98 1 3 C-1.84630854 4.42315427 -4.45242777 4.23233615 -7.625 4.375 C-13.44196841 4.74376487 -17.68571015 5.72244721 -23 8 C-23.969375 8.144375 -24.93875 8.28875 -25.9375 8.4375 C-36.64702988 10.40455651 -47.22825169 17.59524159 -54 26 C-57.87690711 31.72339024 -61.61170783 37.47765893 -64 44 C-64.53367187 43.855625 -65.06734375 43.71125 -65.6171875 43.5625 C-74.12951241 41.44178237 -81.79366848 40.62103189 -89.83203125 44.67578125 C-96.56533418 48.78855547 -101.38365191 53.44877146 -104 61 C-104.43222211 64.19436541 -104.38615554 67.28463464 -104.25 70.5 C-104.23195312 71.32242188 -104.21390625 72.14484375 -104.1953125 72.9921875 C-104.1487283 74.99530804 -104.07700699 76.99781821 -104 79 C-104.7734375 79.36351562 -105.546875 79.72703125 -106.34375 80.1015625 C-119.35382481 86.38117782 -126.62163412 92.11998045 -132.16796875 105.90234375 C-135.08965246 116.77978593 -133.48396677 128.25924783 -128 138 C-123.55267247 144.27959206 -118.86225612 148.74435286 -111.75 151.76953125 C-110 153 -110 153 -109.25 155.63671875 C-109.12625 156.80654297 -109.12625 156.80654297 -109 158 C-121.12919647 154.10132971 -128.35239592 146.69249293 -134.35546875 135.46484375 C-138.97192568 125.48196396 -139.63642165 114.31737793 -136.4375 103.75 C-132.13186891 92.42890006 -124.11930721 82.52040324 -112.9375 77.5 C-111.63190911 76.9822272 -110.32176704 76.47496121 -109 76 C-109.04640625 75.18917969 -109.0928125 74.37835938 -109.140625 73.54296875 C-109.46131171 63.70475866 -108.14162257 55.61604943 -102 47.6875 C-95.92862526 41.286875 -87.01922878 37.25096144 -78.25 36.8125 C-73.93047729 36.85309702 -70.14261544 37.81639559 -66 39 C-65.79375 38.195625 -65.5875 37.39125 -65.375 36.5625 C-63.55561262 31.8486327 -60.97419035 28.06264696 -58 24 C-57.51917969 23.32710937 -57.03835937 22.65421875 -56.54296875 21.9609375 C-47.23949903 10.13728738 -31.22913202 2.83928451 -16.69921875 0.26953125 C-11.14538602 -0.28504828 -5.57293966 -0.1445431 0 0 Z " fill="#623881" transform="translate(261,142)"/>
<path d="M0 0 C2.05078125 0.03255208 4.1015625 0.06510417 6.15234375 0.09765625 C7.84402203 3.48101281 7.28105143 7.32453635 7.26586914 11.04541016 C7.26601517 11.97229141 7.26616119 12.89917267 7.26631165 13.85414124 C7.26561321 16.92752395 7.25782402 20.00084658 7.25 23.07421875 C7.24813557 25.20128344 7.24671179 27.32834855 7.24571228 29.45541382 C7.24188903 35.06141337 7.23206037 40.66738713 7.2210083 46.27337646 C7.21079005 51.99084118 7.20621377 57.70831004 7.20117188 63.42578125 C7.19043795 74.64975093 7.17336382 85.87370145 7.15234375 97.09765625 C3.85234375 97.09765625 0.55234375 97.09765625 -2.84765625 97.09765625 C-2.87077768 84.59808525 -2.88857031 72.0985193 -2.89946842 59.59893131 C-2.90469769 53.79552012 -2.91179612 47.9921235 -2.9230957 42.1887207 C-2.93392303 36.59314772 -2.93993275 30.9975888 -2.94253349 25.40200615 C-2.94438802 23.26206681 -2.94800916 21.12212829 -2.95338631 18.9821949 C-2.96059469 15.99600659 -2.96164728 13.00987718 -2.96118164 10.02368164 C-2.96477692 9.12960602 -2.96837219 8.2355304 -2.97207642 7.31436157 C-2.95991559 0.15644374 -2.95991559 0.15644374 0 0 Z " fill="#BBA7E5" transform="translate(158.84765625,256.90234375)"/>
<path d="M0 0 C16.17 0 32.34 0 49 0 C49 5.94 49 11.88 49 18 C32.83 18 16.66 18 0 18 C0 12.06 0 6.12 0 0 Z " fill="#ECE2F7" transform="translate(170,300)"/>
<path d="M0 0 C2.5654594 2.5654594 2.54046087 4.47686668 3 8 C3.67546875 7.95359375 4.3509375 7.9071875 5.046875 7.859375 C12.38159879 7.56259427 12.38159879 7.56259427 15.5625 9.8125 C17.6534508 12.99438165 18.12639478 15.5375861 18.14526367 19.25610352 C18.15164352 20.11031387 18.15802338 20.96452423 18.16459656 21.84461975 C18.16570938 22.7634343 18.1668222 23.68224884 18.16796875 24.62890625 C18.17296135 26.04706886 18.17296135 26.04706886 18.17805481 27.49388123 C18.18311671 29.49192824 18.18546336 31.48998369 18.18530273 33.48803711 C18.18749394 36.55401387 18.20567032 39.61963357 18.22460938 42.68554688 C18.22754243 44.62499877 18.22952781 46.56445237 18.23046875 48.50390625 C18.23765427 49.42474503 18.24483978 50.3455838 18.25224304 51.29432678 C18.24916641 52.14538498 18.24608978 52.99644318 18.24291992 53.87329102 C18.24434494 54.62369156 18.24576996 55.3740921 18.24723816 56.14723206 C18 58 18 58 16 60 C13.45770841 60.17201285 11.03850004 60.23257617 8.5 60.1875 C7.81035156 60.18685547 7.12070312 60.18621094 6.41015625 60.18554688 C1.28111049 60.14055525 1.28111049 60.14055525 -1 59 C-1 54.38 -1 49.76 -1 45 C-0.01 44.67 0.98 44.34 2 44 C2 47.96 2 51.92 2 56 C5.96 56 9.92 56 14 56 C13.8820767 50.03672101 13.757853 44.07362002 13.62768555 38.1105957 C13.58426759 36.08035896 13.54259774 34.05008408 13.50268555 32.01977539 C13.44514854 29.10811849 13.38140722 26.19665486 13.31640625 23.28515625 C13.29969376 22.3716188 13.28298126 21.45808136 13.26576233 20.51686096 C13.5769315 16.43210684 13.5769315 16.43210684 12 13 C9.03 12.67 6.06 12.34 3 12 C2.67 21.57 2.34 31.14 2 41 C1.34 40.67 0.68 40.34 0 40 C0 36.7 0 33.4 0 30 C-0.78283356 30.65063416 -1.56566711 31.30126831 -2.3722229 31.97161865 C-6.71232692 34.84082513 -10.98808146 34.53210589 -16.04443359 34.45410156 C-17.53804413 34.45497772 -17.53804413 34.45497772 -19.06182861 34.45587158 C-22.34105737 34.45309303 -25.61936825 34.42201089 -28.8984375 34.390625 C-31.17672224 34.38316182 -33.45501342 34.37746925 -35.73330688 34.37347412 C-41.72082334 34.35822399 -47.7079498 34.31894697 -53.6953125 34.2746582 C-59.80854009 34.23369244 -65.92183088 34.21546028 -72.03515625 34.1953125 C-84.02360856 34.15245257 -96.01177181 34.08420832 -108 34 C-107.67 33.01 -107.34 32.02 -107 31 C-105.19715042 30.99120064 -105.19715042 30.99120064 -103.35787964 30.98222351 C-92.02818539 30.92499748 -80.69868311 30.85223625 -69.36918449 30.76428509 C-63.54463969 30.71956777 -57.72016505 30.68031444 -51.89550781 30.65356445 C-46.27383231 30.62754536 -40.65242663 30.58715235 -35.03091812 30.53681374 C-32.88677452 30.52013568 -30.74258424 30.50862726 -28.59838486 30.50238609 C-25.59378559 30.49275544 -22.58987811 30.46470776 -19.58544922 30.43237305 C-18.69999924 30.43380814 -17.81454926 30.43524323 -16.90226746 30.4367218 C-11.85940456 30.36002778 -8.37749255 29.778785 -4 27 C0.1769483 22.48462092 -0.44272318 16.50289502 -0.3125 10.6875 C-0.27833984 9.66076172 -0.24417969 8.63402344 -0.20898438 7.57617188 C-0.12676591 5.05089037 -0.05753064 2.5259446 0 0 Z " fill="#613689" transform="translate(342,298)"/>
<path d="M0 0 C0.33 0.99 0.66 1.98 1 3 C1.66 3 2.32 3 3 3 C3 14.22 3 25.44 3 37 C5.64 37 8.28 37 11 37 C11 26.44 11 15.88 11 5 C9.35 5 7.7 5 6 5 C6 4.34 6 3.68 6 3 C5.34 2.67 4.68 2.34 4 2 C10.32096746 1.51377173 10.32096746 1.51377173 13.20117188 3.57617188 C15.62469105 6.84173897 15.51668466 8.98832755 15.53125 13.03125 C15.5350769 13.70418091 15.53890381 14.37711182 15.54284668 15.07043457 C15.5455613 16.4891917 15.53823134 17.90799927 15.52148438 19.32666016 C15.50006275 21.49365203 15.52129538 23.65732951 15.546875 25.82421875 C15.54423164 27.20573646 15.53910647 28.5872521 15.53125 29.96875 C15.52673828 31.22107422 15.52222656 32.47339844 15.51757812 33.76367188 C14.9141046 37.53708935 14.00289231 38.71763379 11 41 C8.09215119 41.70882303 6.057461 41.33971789 3 41 C1 39.625 1 39.625 0 38 C0 37.34 0 36.68 0 36 C-1.36125 35.9071875 -1.36125 35.9071875 -2.75 35.8125 C-6.92328052 34.76917987 -7.76302226 33.63926229 -10 30 C-10.59002789 27.14940514 -10.6051168 24.40295628 -10.5625 21.5 C-10.58634766 20.75363281 -10.61019531 20.00726563 -10.63476562 19.23828125 C-10.62359378 15.03021928 -10.34234764 13.43246895 -7.640625 10.01953125 C-4.94971333 7.96154111 -3.33832863 7.28614245 0 7 C0 4.69 0 2.38 0 0 Z " fill="#434A8A" transform="translate(198,223)"/>
<path d="M0 0 C0.66 0.33 1.32 0.66 2 1 C1.05938363 3.60478378 0.26745916 5.68875104 -1.54931641 7.80297852 C-3.42799752 10.6481908 -3.38736534 12.51083568 -3.3984375 15.90234375 C-3.40230469 17.03994141 -3.40617187 18.17753906 -3.41015625 19.34960938 C-3.39855469 20.53361328 -3.38695312 21.71761719 -3.375 22.9375 C-3.38660156 24.11763672 -3.39820313 25.29777344 -3.41015625 26.51367188 C-3.40435547 28.22200195 -3.40435547 28.22200195 -3.3984375 29.96484375 C-3.39505371 31.0024585 -3.39166992 32.04007324 -3.38818359 33.10913086 C-2.94305066 36.42411141 -1.96196297 38.31391878 0 41 C1.99693687 42.21143606 1.99693687 42.21143606 4.1875 42.8125 C5.445625 43.204375 6.70375 43.59625 8 44 C8 44.66 8 45.32 8 46 C40.01 46.33 72.02 46.66 105 47 C105 47.33 105 47.66 105 48 C91.95219166 48.09273264 78.90446188 48.16378189 65.85639095 48.20724869 C59.79745266 48.22811194 53.73874005 48.25640714 47.67993164 48.30175781 C41.83143969 48.34525966 35.98316466 48.36914661 30.13452339 48.37950897 C27.90461374 48.38689247 25.67471578 48.40131073 23.44489861 48.42292023 C20.31839334 48.45201114 17.19278122 48.45595352 14.06616211 48.45410156 C12.68727562 48.47567322 12.68727562 48.47567322 11.28053284 48.49768066 C5.32796334 48.45959694 1.88554356 47.45128789 -3 44 C-7 39.69230769 -7 39.69230769 -7 37 C-7.89535965 37.00333092 -7.89535965 37.00333092 -8.80880737 37.00672913 C-15.00518192 37.02880297 -21.20154535 37.04391542 -27.39794922 37.05493164 C-29.71240696 37.05996943 -32.0268615 37.06679981 -34.34130859 37.07543945 C-37.6624429 37.08752924 -40.98353525 37.09323375 -44.3046875 37.09765625 C-45.86411575 37.10539818 -45.86411575 37.10539818 -47.45504761 37.11329651 C-48.41589264 37.11337204 -49.37673767 37.11344757 -50.36669922 37.11352539 C-51.21497284 37.115746 -52.06324646 37.11796661 -52.93722534 37.12025452 C-55 37 -55 37 -57 36 C-57 35.01 -57 34.02 -57 33 C-40.83 33 -24.66 33 -8 33 C-8 27.06 -8 21.12 -8 15 C-24.17 15 -40.34 15 -57 15 C-57 14.67 -57 14.34 -57 14 C-41.16 14 -25.32 14 -9 14 C-9 13.34 -9 12.68 -9 12 C-8.34 12 -7.68 12 -7 12 C-7 11.01 -7 10.02 -7 9 C-5.74591605 4.55370235 -3.7278764 2.64875428 0 0 Z " fill="#724997" transform="translate(227,285)"/>
<path d="M0 0 C0.33 0 0.66 0 1 0 C1.33 3.63 1.66 7.26 2 11 C3.57265794 9.42734206 3.30757977 7.67159971 3.5 5.5 C3.88888889 1.11111111 3.88888889 1.11111111 5 0 C7.31 0 9.62 0 12 0 C12.33 9.9 12.66 19.8 13 30 C13.9731681 27.0804957 14.1929546 24.94555049 14.31640625 21.89453125 C14.35830078 20.91162109 14.40019531 19.92871094 14.44335938 18.91601562 C14.48267578 17.89185547 14.52199219 16.86769531 14.5625 15.8125 C14.60568359 14.77673828 14.64886719 13.74097656 14.69335938 12.67382812 C14.79944366 10.1160181 14.90150146 7.55811155 15 5 C18.24189404 5.7324589 20.04860626 6.18065506 22 9 C22.3984375 11.99609375 22.3984375 11.99609375 22.375 15.4375 C22.38273437 16.57058594 22.39046875 17.70367187 22.3984375 18.87109375 C21.97234414 22.21717981 21.37394699 23.64342335 19 26 C18.34 26 17.68 26 17 26 C17 27.32 17 28.64 17 30 C16.34 30 15.68 30 15 30 C14.690625 30.639375 14.38125 31.27875 14.0625 31.9375 C13 34 13 34 12 35 C4.78908393 35.59105869 4.78908393 35.59105869 1.89282227 33.42163086 C-0.6916865 30.11507309 -0.45886137 27.99054355 -0.390625 23.828125 C-0.38496521 23.1457074 -0.37930542 22.46328979 -0.37347412 21.76019287 C-0.35115636 19.58940238 -0.30097508 17.42028794 -0.25 15.25 C-0.22992876 13.7747635 -0.21167907 12.29950101 -0.1953125 10.82421875 C-0.1513088 7.21560499 -0.08231583 3.60796619 0 0 Z " fill="#4C4F95" transform="translate(290,229)"/>
<path d="M0 0 C1.45860947 -0.0098568 1.45860947 -0.0098568 2.94668579 -0.01991272 C6.18182443 -0.0397068 9.41691642 -0.05132448 12.65209961 -0.0612793 C14.30717938 -0.06739259 14.30717938 -0.06739259 15.99569511 -0.07362938 C21.84038991 -0.09452039 27.68506105 -0.10880655 33.52978516 -0.11816406 C39.56349402 -0.12920924 45.59683212 -0.1635789 51.63041019 -0.20333576 C56.27077409 -0.22951174 60.91105002 -0.23785701 65.55148125 -0.24144554 C67.77497283 -0.24631227 69.99846047 -0.25792865 72.22187996 -0.27648354 C75.34092395 -0.30088551 78.45901435 -0.2999072 81.578125 -0.29296875 C82.49221634 -0.30577881 83.40630768 -0.31858887 84.34809875 -0.33178711 C90.84720912 -0.2792742 96.39014685 1.00244467 101.23275852 5.58898449 C102.49352351 7.04418693 103.62283076 8.61024432 104.74194336 10.17700195 C105.38131836 11.00200195 106.02069336 11.82700195 106.67944336 12.67700195 C107.74194336 15.17700195 107.74194336 15.17700195 106.92944336 18.48950195 C106.53756836 19.37637695 106.14569336 20.26325195 105.74194336 21.17700195 C107.72194336 21.17700195 109.70194336 21.17700195 111.74194336 21.17700195 C111.74194336 21.50700195 111.74194336 21.83700195 111.74194336 22.17700195 C109.76194336 22.50700195 107.78194336 22.83700195 105.74194336 23.17700195 C105.30881836 21.93950195 104.87569336 20.70200195 104.42944336 19.42700195 C102.31243359 13.82431099 99.14407517 10.24897388 94.74194336 6.17700195 C91.96648927 5.25185059 90.33234799 5.05326212 87.47090149 5.05674744 C86.60011963 5.05537277 85.72933777 5.05399811 84.83216858 5.05258179 C83.87982834 5.05617706 82.9274881 5.05977234 81.94628906 5.06347656 C80.94123322 5.06333054 79.93617737 5.06318451 78.90066528 5.06303406 C75.57299657 5.06373167 72.24538357 5.07151701 68.91772461 5.0793457 C66.61272716 5.08121042 64.30772931 5.08263407 62.00273132 5.08363342 C55.93149728 5.08745436 49.8602871 5.09728106 43.7890625 5.1083374 C37.59562503 5.1185606 31.40218371 5.123133 25.20874023 5.12817383 C13.05313078 5.13890368 0.89753905 5.15597506 -11.25805664 5.17700195 C-9.76308586 -1.44358291 -6.11475538 0.01771268 0 0 Z " fill="#714A90" transform="translate(239.258056640625,283.822998046875)"/>
<path d="M0 0 C2.97 0 5.94 0 9 0 C11 2 11 2 11.24050903 3.83499146 C11.23606781 4.57667572 11.23162659 5.31835999 11.22705078 6.08251953 C11.22682419 7.34360031 11.22682419 7.34360031 11.22659302 8.63015747 C11.21627045 9.53853363 11.20594788 10.44690979 11.1953125 11.3828125 C11.1924826 12.31221649 11.18965271 13.24162048 11.18673706 14.19918823 C11.17552069 17.1745885 11.1504136 20.14969035 11.125 23.125 C11.11497208 25.13931858 11.1058459 27.15364186 11.09765625 29.16796875 C11.07557661 34.11209456 11.04103693 39.05599665 11 44 C7.37 44 3.74 44 0 44 C0 29.48 0 14.96 0 0 Z " fill="#B7A2E3" transform="translate(345,310)"/>
<path d="M0 0 C10.15123733 0.07236116 19.34552508 3.03302508 26.625 10.3125 C26.75 13.4375 26.75 13.4375 26.625 16.3125 C18.76703181 20.2414841 11.6300904 18.11926971 3.6953125 15.5234375 C-1.51310865 13.46922559 -5.22005361 11.04491959 -8.375 6.3125 C-7.61766428 -0.04912003 -6.16077202 0.12695734 0 0 Z " fill="#EADCF7" transform="translate(183.375,275.6875)"/>
<path d="M0 0 C-0.33 1.98 -0.66 3.96 -1 6 C-5.70750635 5.43675932 -9.89107604 4.45204574 -14.375 2.9375 C-27.3907297 -0.85644674 -41.12983158 -0.13771253 -53.68359375 5.125 C-56.29811651 6.11261062 -57.4225685 5.95460426 -60 5 C-60.33 3.68 -60.66 2.36 -61 1 C-42.79938723 -10.23016533 -18.78691661 -10.28235334 0 0 Z " fill="#737FD2" transform="translate(282,189)"/>
<path d="M0 0 C3.23948608 0.84905885 4.90715111 2.96987639 6.9375 5.5078125 C6.61407623 6.14881393 6.29065247 6.78981537 5.95742798 7.45024109 C4.60517598 11.50406365 4.62966485 15.1826712 4.61865234 19.42895508 C4.60860672 20.31726013 4.5985611 21.20556519 4.58821106 22.12078857 C4.55739599 25.04796724 4.54034851 27.9750545 4.5234375 30.90234375 C4.50472451 32.93544805 4.485151 34.9685446 4.4647522 37.00163269 C4.41343887 42.34613471 4.37380877 47.69066191 4.33660889 53.03527832 C4.29656431 58.49168116 4.24547401 63.94797933 4.1953125 69.40429688 C4.09856262 80.10539522 4.01415474 90.80655267 3.9375 101.5078125 C3.6075 101.5078125 3.2775 101.5078125 2.9375 101.5078125 C2.6075 69.4978125 2.2775 37.4878125 1.9375 4.5078125 C-0.7025 4.8378125 -3.3425 5.1678125 -6.0625 5.5078125 C-6.3925 37.1878125 -6.7225 68.8678125 -7.0625 101.5078125 C-7.3925 101.5078125 -7.7225 101.5078125 -8.0625 101.5078125 C-8.5575 72.7978125 -8.5575 72.7978125 -9.0625 43.5078125 C-9.7225 43.5078125 -10.3825 43.5078125 -11.0625 43.5078125 C-11.18633064 38.18766734 -11.27694676 32.86836536 -11.3371582 27.54711914 C-11.3622639 25.73805118 -11.39635595 23.92908428 -11.43969727 22.12036133 C-11.50052579 19.51618499 -11.52874809 16.91335219 -11.55078125 14.30859375 C-11.57658768 13.50319656 -11.6023941 12.69779938 -11.62898254 11.86799622 C-11.63112519 7.55377109 -11.45304001 5.99704951 -8.66088867 2.49926758 C-5.42622235 0.02015706 -3.92240241 -0.22286377 0 0 Z " fill="#74499B" transform="translate(163.0625,252.4921875)"/>
<path d="M0 0 C0.33 0 0.66 0 1 0 C1 2.31 1 4.62 1 7 C1.721875 7.061875 2.44375 7.12375 3.1875 7.1875 C7.05182376 8.3038602 8.50570418 9.8490932 11 13 C11.69292241 15.85844106 11.65604794 18.5722022 11.5625 21.5 C11.57345703 22.24636719 11.58441406 22.99273437 11.59570312 23.76171875 C11.54390646 27.66373456 11.24777255 29.61020525 9.10546875 32.98046875 C6.98023493 35.01895833 5.88862229 35.69050475 3 36 C3 34.68 3 33.36 3 32 C3.65097656 31.39285156 4.30195313 30.78570312 4.97265625 30.16015625 C7.72507018 27.22743004 7.50506325 25.39670634 7.4375 21.4375 C7.43556641 19.73400391 7.43556641 19.73400391 7.43359375 17.99609375 C7.24268884 15.03243786 7.24268884 15.03243786 5.66015625 13.16015625 C3.88822569 11.80484583 3.88822569 11.80484583 1 11 C1.01047363 11.64549805 1.02094727 12.29099609 1.03173828 12.95605469 C1.07337272 15.88733002 1.09934975 18.81854304 1.125 21.75 C1.14175781 22.76578125 1.15851563 23.7815625 1.17578125 24.828125 C1.18222656 25.8078125 1.18867188 26.7875 1.1953125 27.796875 C1.20578613 28.69760742 1.21625977 29.59833984 1.22705078 30.52636719 C0.98721676 33.13926856 0.32312064 34.75664666 -1 37 C-1.33 37 -1.66 37 -2 37 C-2 26.77 -2 16.54 -2 6 C-4.31 6.33 -6.62 6.66 -9 7 C-9.05607422 7.93972656 -9.05607422 7.93972656 -9.11328125 8.8984375 C-9.21189453 10.12433594 -9.21189453 10.12433594 -9.3125 11.375 C-9.37050781 12.18710938 -9.42851562 12.99921875 -9.48828125 13.8359375 C-10 16 -10 16 -13 18 C-13.05384521 15.70858714 -13.09272087 13.41681812 -13.125 11.125 C-13.14820313 9.84882813 -13.17140625 8.57265625 -13.1953125 7.2578125 C-13 4 -13 4 -11 2 C-8.65234375 1.62109375 -8.65234375 1.62109375 -5.9375 1.4375 C-2.66160436 1.46018047 -2.66160436 1.46018047 0 0 Z " fill="#3E438C" transform="translate(304,223)"/>
<path d="M0 0 C7.01446482 2.39849442 15.18196698 6.16039452 18.875 12.875 C19.3125 16 19.3125 16 18.875 18.875 C17.375 20.75 17.375 20.75 15.875 21.875 C14.885 21.545 13.895 21.215 12.875 20.875 C12.875 20.215 12.875 19.555 12.875 18.875 C13.535 18.875 14.195 18.875 14.875 18.875 C14.14480968 14.1031309 14.14480968 14.1031309 11.27734375 10.40234375 C9.19846615 9.05086667 7.11619182 7.93539059 4.875 6.875 C4.20339844 6.55402344 3.53179687 6.23304688 2.83984375 5.90234375 C-3.96236451 3.16874604 -10.90466802 3.59768995 -18.125 3.875 C-18.80409284 6.24824148 -18.80409284 6.24824148 -19.125 8.875 C-16.07350653 12.9108462 -12.49114028 14.92355454 -7.9921875 16.98046875 C-6.125 17.875 -6.125 17.875 -3.125 19.875 C-3.455 20.535 -3.785 21.195 -4.125 21.875 C-10.72192568 21.59427976 -15.07651052 19.06583104 -20.125 14.875 C-22.59167775 11.92701928 -23.88736957 9.98394199 -24.6875 6.25 C-23.87411256 2.81569746 -21.99178404 1.78618936 -19.125 -0.125 C-13.70471556 -2.83514222 -5.67312407 -1.530843 0 0 Z " fill="#673E87" transform="translate(195.125,273.125)"/>
<path d="M0 0 C15.18 0 30.36 0 46 0 C46 0.99 46 1.98 46 3 C-8.45 3 -62.9 3 -119 3 C-119 2.67 -119 2.34 -119 2 C-79.73 2 -40.46 2 0 2 C0 1.34 0 0.68 0 0 Z " fill="#653B83" transform="translate(295,339)"/>
<path d="M0 0 C0.9821994 3.27626375 1.11580914 6.22788119 1.09765625 9.640625 C1.09443359 10.71054688 1.09121094 11.78046875 1.08789062 12.8828125 C1.07951172 13.99398437 1.07113281 15.10515625 1.0625 16.25 C1.05798828 17.37664062 1.05347656 18.50328125 1.04882812 19.6640625 C1.03705397 22.44276217 1.0206084 25.22135409 1 28 C-0.83203125 28.61328125 -0.83203125 28.61328125 -3 29 C-5.64698845 27.21482174 -7.56010623 25.87978754 -9 23 C-9.20393196 20.21195878 -9.32370547 17.47838867 -9.375 14.6875 C-9.43107422 13.54764648 -9.43107422 13.54764648 -9.48828125 12.38476562 C-9.55567359 8.07539978 -9.40482199 6.50306055 -6.6015625 3.01953125 C-2.71179884 0 -2.71179884 0 0 0 Z " fill="#6E4290" transform="translate(197,230)"/>
<path d="M0 0 C3 0.125 3 0.125 4 1.125 C4.08783542 3.34355264 4.10694609 5.56488496 4.09765625 7.78515625 C4.0962413 8.44962265 4.09482635 9.11408905 4.09336853 9.7986908 C4.08775518 11.92833899 4.07520054 14.05788339 4.0625 16.1875 C4.05748671 17.62825369 4.05292351 19.06900903 4.04882812 20.50976562 C4.03778145 24.04821102 4.02050792 27.58659539 4 31.125 C1.36 31.125 -1.28 31.125 -4 31.125 C-4.02465622 26.87085377 -4.04283899 22.61674502 -4.05493164 18.36254883 C-4.05997101 16.91429927 -4.06680253 15.46605483 -4.07543945 14.01782227 C-4.08752247 11.94025412 -4.09323211 9.86275303 -4.09765625 7.78515625 C-4.10289307 6.53355713 -4.10812988 5.28195801 -4.11352539 3.99243164 C-3.95792872 0.06236097 -3.94865839 0.16452743 0 0 Z " fill="#737ECF" transform="translate(205,228.875)"/>
<path d="M0 0 C2.31 0 4.62 0 7 0 C7 10.23 7 20.46 7 31 C4.69 31 2.38 31 0 31 C-1.85714057 29.14285943 -1.13048681 26.07492951 -1.1328125 23.59375 C-1.13410156 22.29308594 -1.13539063 20.99242187 -1.13671875 19.65234375 C-1.13462402 18.97155762 -1.1325293 18.29077148 -1.13037109 17.58935547 C-1.1250224 15.50871485 -1.1303168 13.42829011 -1.13671875 11.34765625 C-1.13542969 10.04699219 -1.13414062 8.74632812 -1.1328125 7.40625 C-1.13168457 6.20291016 -1.13055664 4.99957031 -1.12939453 3.75976562 C-1 1 -1 1 0 0 Z " fill="#757ED1" transform="translate(295,229)"/>
<path d="M0 0 C0.33 0 0.66 0 1 0 C1 11.88 1 23.76 1 36 C0.67 36 0.34 36 0 36 C0 32.04 0 28.08 0 24 C-0.99 24.33 -1.98 24.66 -3 25 C-3 23.68 -3 22.36 -3 21 C-58.77 21 -114.54 21 -172 21 C-172 20.67 -172 20.34 -172 20 C-116.23 20 -60.46 20 -3 20 C-3.33 16.7 -3.66 13.4 -4 10 C-3.34 10 -2.68 10 -2 10 C-1.67 13.3 -1.34 16.6 -1 20 C-0.67 13.4 -0.34 6.8 0 0 Z " fill="#754A98" transform="translate(344,318)"/>
<path d="M0 0 C0.99 0 1.98 0 3 0 C4.02612598 3.07837794 4.12090219 5.16574296 4.11352539 8.3894043 C4.11341209 10.04077644 4.11341209 10.04077644 4.11329651 11.72550964 C4.10813522 12.91308365 4.10297394 14.10065765 4.09765625 15.32421875 C4.0962413 16.54075638 4.09482635 17.75729401 4.09336853 19.01069641 C4.08776312 22.9029891 4.07520967 26.79522464 4.0625 30.6875 C4.0574857 33.32356688 4.05292267 35.95963466 4.04882812 38.59570312 C4.03779193 45.06382164 4.0210485 51.53190674 4 58 C5.39992187 57.98259766 5.39992187 57.98259766 6.828125 57.96484375 C10 58 10 58 12.75 58.5625 C15.02413438 59.24197896 15.02413438 59.24197896 17 58 C17 58.99 17 59.98 17 61 C12.71 61 8.42 61 4 61 C2.08441611 57.16883221 1.74262582 55.81720671 1.69702148 51.74414062 C1.67205849 50.17231018 1.67205849 50.17231018 1.64659119 48.56872559 C1.63817703 47.44260864 1.62976288 46.3164917 1.62109375 45.15625 C1.60409927 43.9950061 1.5871048 42.83376221 1.56959534 41.6373291 C1.51644764 37.92494142 1.47616754 34.21256455 1.4375 30.5 C1.39354938 26.78749316 1.34681192 23.07507226 1.29469299 19.3626709 C1.26278444 17.05227096 1.23587933 14.74179542 1.21446228 12.43127441 C1.20097244 11.38338745 1.1874826 10.33550049 1.17358398 9.25585938 C1.15931618 7.87497131 1.15931618 7.87497131 1.14476013 6.46618652 C1.01028976 4.17530008 0.64277242 2.19645826 0 0 Z " fill="#64328D" transform="translate(151,296)"/>
<path d="M0 0 C0.66 0 1.32 0 2 0 C2.16768291 2.93744524 2.33418858 5.87494904 2.5 8.8125 C2.54769531 9.64587891 2.59539062 10.47925781 2.64453125 11.33789062 C2.68964844 12.14033203 2.73476562 12.94277344 2.78125 13.76953125 C2.82314453 14.50792236 2.86503906 15.24631348 2.90820312 16.00708008 C2.98479533 17.66990494 3 19.3354121 3 21 C3.23269969 25.18859444 3.50768057 27.39515041 6.1875 30.6875 C10.52591065 34.25463765 14.6811929 37.12277396 20 39 C20 39.33 20 39.66 20 40 C13.73 40 7.46 40 1 40 C0.67 26.8 0.34 13.6 0 0 Z " fill="#FCF7FB" transform="translate(169,256)"/>
<path d="M0 0 C10.53963715 1.31991718 18.20784485 4.79225648 26 12 C27.39935013 14.79870027 27.25265405 16.90498792 27 20 C25.5 21.875 25.5 21.875 24 23 C23.01 22.67 22.02 22.34 21 22 C21 21.34 21 20.68 21 20 C21.66 20 22.32 20 23 20 C22.26980968 15.2281309 22.26980968 15.2281309 19.40234375 11.52734375 C11.14066228 6.15642955 2.71764264 4.52675072 -7 4 C-7 3.67 -7 3.34 -7 3 C-3.535 2.505 -3.535 2.505 0 2 C0 1.34 0 0.68 0 0 Z " fill="#6C438C" transform="translate(187,272)"/>
<path d="M0 0 C5.09793814 1.27448454 5.09793814 1.27448454 7 4 C7.76387346 8.82513402 8.31633229 14.54772169 5.9453125 18.96484375 C4.625 20.3125 4.625 20.3125 2 22 C1.34 22 0.68 22 0 22 C0 14.74 0 7.48 0 0 Z " fill="#D5CDF1" transform="translate(305,234)"/>
<path d="M0 0 C8.16712462 0.19875746 14.67016082 2.4997959 22 6 C22.7528125 6.35578125 23.505625 6.7115625 24.28125 7.078125 C28.74243908 9.38185379 28.74243908 9.38185379 29.9375 12.25 C29.958125 12.8275 29.97875 13.405 30 14 C29.01 14.495 29.01 14.495 28 15 C25.52912571 13.83386787 23.1500131 12.61101455 20.75 11.3125 C13.34244561 7.43299615 6.15860551 4.93766881 -2 3 C-1.34 2.67 -0.68 2.34 0 2 C0 1.34 0 0.68 0 0 Z " fill="#6B3F89" transform="translate(262,143)"/>
<path d="M0 0 C10.28307985 7.12507817 16.672103 14.79833374 19.53125 27.328125 C19.75787674 28.87674107 19.89353509 30.43851461 20 32 C19.01 32.66 18.02 33.32 17 34 C16.731875 33.04480469 16.46375 32.08960938 16.1875 31.10546875 C13.32580884 21.47194161 9.72577907 11.81718605 1 6 C0.3125 2.875 0.3125 2.875 0 0 Z " fill="#4A4E88" transform="translate(285,191)"/>
<path d="M0 0 C19.8 0 39.6 0 60 0 C59.67 0.66 59.34 1.32 59 2 C58.30731018 2.01030746 57.61462036 2.02061493 56.90093994 2.03123474 C49.69851284 2.13932355 42.49621023 2.25391985 35.29394531 2.37231445 C32.60517236 2.41617963 29.91637835 2.4577294 27.22753906 2.49731445 C23.36515039 2.5550365 19.50289944 2.61872582 15.640625 2.68359375 C13.83419525 2.70866249 13.83419525 2.70866249 11.99127197 2.73423767 C10.87041199 2.75418289 9.749552 2.77412811 8.59472656 2.79467773 C7.60877502 2.81022202 6.62282349 2.8257663 5.60699463 2.84178162 C3.26225602 2.98408369 1.24582829 3.33704501 -1 4 C-0.67 2.68 -0.34 1.36 0 0 Z " fill="#653788" transform="translate(229,285)"/>
<path d="M0 0 C0.66 0.33 1.32 0.66 2 1 C0.61839132 5.02969199 -1.35680598 7.69600747 -4 11 C-6.31978146 15.49770577 -6.42566252 19.85813297 -6.625 24.8125 C-6.66367188 25.60076172 -6.70234375 26.38902344 -6.7421875 27.20117188 C-6.83588844 29.1337538 -6.91900779 31.06684376 -7 33 C-7.33 33 -7.66 33 -8 33 C-8 27.06 -8 21.12 -8 15 C-24.17 15 -40.34 15 -57 15 C-57 14.67 -57 14.34 -57 14 C-41.16 14 -25.32 14 -9 14 C-9 13.34 -9 12.68 -9 12 C-8.34 12 -7.68 12 -7 12 C-7 11.01 -7 10.02 -7 9 C-5.74591605 4.55370235 -3.7278764 2.64875428 0 0 Z " fill="#865EA4" transform="translate(227,285)"/>
<path d="M0 0 C3.33832863 0.28614245 4.94971333 0.96154111 7.640625 3.01953125 C10.76809961 6.97029801 10.71867491 9.61214745 10.5625 14.5 C10.57345703 15.24636719 10.58441406 15.99273437 10.59570312 16.76171875 C10.54390646 20.66373456 10.24777255 22.61020525 8.10546875 25.98046875 C5.98023493 28.01895833 4.88862229 28.69050475 2 29 C2 27.68 2 26.36 2 25 C2.65097656 24.39285156 3.30195313 23.78570312 3.97265625 23.16015625 C6.72507018 20.22743004 6.50506325 18.39670634 6.4375 14.4375 C6.43621094 13.30183594 6.43492187 12.16617188 6.43359375 10.99609375 C6.25058905 8.03575583 6.25058905 8.03575583 4.66015625 6.22265625 C3.13942772 5.10268441 1.57144151 4.04762768 0 3 C0 2.01 0 1.02 0 0 Z " fill="#613A83" transform="translate(305,230)"/>
<path d="M0 0 C0.495 1.485 0.495 1.485 1 3 C-3.03811856 5.01905928 -8.05158427 4.74493079 -12.5 5.125 C-13.57121094 5.22425781 -14.64242187 5.32351562 -15.74609375 5.42578125 C-16.76832031 5.51472656 -17.79054687 5.60367188 -18.84375 5.6953125 C-19.78412109 5.77797363 -20.72449219 5.86063477 -21.69335938 5.94580078 C-24 6 -24 6 -26 5 C-28.0765295 5.67013266 -30.02616805 6.53845044 -32.02734375 7.40625 C-34 8 -34 8 -37 7 C-24.12715346 1.71365863 -13.93055358 -0.36131119 0 0 Z " fill="#613483" transform="translate(261,142)"/>
<path d="M0 0 C0.33 0.99 0.66 1.98 1 3 C1.66 3 2.32 3 3 3 C3.04944066 7.64475959 3.08573863 12.28936596 3.10986328 16.93432617 C3.11992041 18.51443144 3.13356785 20.0945181 3.15087891 21.67456055 C3.17514022 23.9458475 3.18648582 26.21688836 3.1953125 28.48828125 C3.20563507 29.19463211 3.21595764 29.90098297 3.22659302 30.6287384 C3.22743775 34.32197792 3.10720523 35.83919216 1 39 C0.505 37.515 0.505 37.515 0 36 C-0.66 35.67 -1.32 35.34 -2 35 C-1.67 34.34 -1.34 33.68 -1 33 C-0.92673523 31.12240713 -0.91642326 29.24218479 -0.9375 27.36328125 C-0.94523438 26.22826172 -0.95296875 25.09324219 -0.9609375 23.92382812 C-0.98676793 21.535805 -1.01280611 19.14778411 -1.0390625 16.75976562 C-1.07769043 11.05892735 -1.05155241 5.61101795 0 0 Z " fill="#3B3F8D" transform="translate(198,223)"/>
<path d="M0 0 C0.33 0 0.66 0 1 0 C1 12.87 1 25.74 1 39 C0.01 38.67 -0.98 38.34 -2 38 C-4.32965691 7.03348348 -4.32965691 7.03348348 0 0 Z " fill="#6A3F8E" transform="translate(359,315)"/>
<path d="M0 0 C0.99 0 1.98 0 3 0 C3 6.6 3 13.2 3 20 C0.525 19.01 0.525 19.01 -2 18 C-2.05382106 15.37472811 -2.09358313 12.75055287 -2.125 10.125 C-2.14175781 9.37863281 -2.15851563 8.63226563 -2.17578125 7.86328125 C-2.1933959 5.90805539 -2.10320189 3.95257979 -2 2 C-1.34 1.34 -0.68 0.68 0 0 Z " fill="#DAC5F8" transform="translate(194,235)"/>
<path d="M0 0 C0.75812988 -0.0093457 1.51625977 -0.01869141 2.29736328 -0.02832031 C7.81650627 0.00400627 7.81650627 0.00400627 10.0625 2.25 C7.8393606 3.3615697 6.27615948 3.51870605 3.80859375 3.75 C2.95330078 3.8325 2.09800781 3.915 1.21679688 4 C0.32025391 4.0825 -0.57628906 4.165 -1.5 4.25 C-3.25134862 4.41617689 -5.00265112 4.58284067 -6.75390625 4.75 C-7.61129395 4.83121094 -8.46868164 4.91242188 -9.35205078 4.99609375 C-13.21840554 5.37579242 -17.07745068 5.81109084 -20.9375 6.25 C-19.25099267 2.87698535 -17.9169331 2.24290796 -14.3125 1 C-9.56389635 0.11800397 -4.81591639 0.04241319 0 0 Z " fill="#3F478A" transform="translate(251.9375,188.75)"/>
<path d="M0 0 C3.4186719 1.51730237 6.71926146 3.20552506 10 5 C10 5.66 10 6.32 10 7 C5.38280466 6.57049346 1.3947473 5.495623 -3 4 C-10.35550784 1.63664707 -17.31965205 1.21245776 -25 1 C-25 0.67 -25 0.34 -25 0 C-24.01257813 -0.06058594 -23.02515625 -0.12117187 -22.0078125 -0.18359375 C-20.72648438 -0.26738281 -19.44515625 -0.35117188 -18.125 -0.4375 C-16.84882813 -0.51871094 -15.57265625 -0.59992188 -14.2578125 -0.68359375 C-5.04592301 -1.57827366 -5.04592301 -1.57827366 0 0 Z " fill="#4C5396" transform="translate(271,192)"/>
<path d="M0 0 C4.71191367 1.83241087 8.62347781 5.5896217 11.25 9.875 C12.43912041 12.71059482 12.32493163 13.65520056 11.3125 16.625 C10.961875 17.3675 10.61125 18.11 10.25 18.875 C12.23 18.875 14.21 18.875 16.25 18.875 C16.25 19.205 16.25 19.535 16.25 19.875 C14.27 20.205 12.29 20.535 10.25 20.875 C9.816875 19.6375 9.38375 18.4 8.9375 17.125 C6.82049023 11.52230904 3.65213181 7.94697192 -0.75 3.875 C-1.74 3.545 -2.73 3.215 -3.75 2.875 C-3.75 2.215 -3.75 1.555 -3.75 0.875 C-1.75 -0.125 -1.75 -0.125 0 0 Z " fill="#663F8A" transform="translate(334.75,286.125)"/>
<path d="M0 0 C0.33 0 0.66 0 1 0 C1 11.88 1 23.76 1 36 C0.67 36 0.34 36 0 36 C0 32.04 0 28.08 0 24 C-0.99 24.33 -1.98 24.66 -3 25 C-3 23.68 -3 22.36 -3 21 C-3.66 20.67 -4.32 20.34 -5 20 C-4.34 20 -3.68 20 -3 20 C-3.33 16.7 -3.66 13.4 -4 10 C-3.34 10 -2.68 10 -2 10 C-1.67 13.3 -1.34 16.6 -1 20 C-0.67 13.4 -0.34 6.8 0 0 Z " fill="#784EA2" transform="translate(344,318)"/>
<path d="M0 0 C0 0.66 0 1.32 0 2 C-3.62564187 1.89045592 -7.25021431 1.7597504 -10.875 1.625 C-11.90753906 1.5940625 -12.94007813 1.563125 -14.00390625 1.53125 C-14.99003906 1.49257812 -15.97617188 1.45390625 -16.9921875 1.4140625 C-17.90339355 1.3826416 -18.81459961 1.3512207 -19.75341797 1.31884766 C-22 1 -22 1 -24 -1 C-17.2253215 -4.38733925 -7.02933406 -1.74178189 0 0 Z " fill="#384392" transform="translate(263,181)"/>
<path d="M0 0 C-2.2273906 1.970384 -3.65957344 2.94326224 -6.625 3.4375 C-11.3787028 4.2297838 -15.58111215 6.12240931 -20 8 C-20.66 7.34 -21.32 6.68 -22 6 C-14.63568588 1.55072688 -8.70340076 -1.99452934 0 0 Z " fill="#714691" transform="translate(242,147)"/>
<path d="M0 0 C0.66 0.33 1.32 0.66 2 1 C2.08724706 4.4165052 2.14047325 7.83272313 2.1875 11.25 C2.21263672 12.21808594 2.23777344 13.18617188 2.26367188 14.18359375 C2.27333984 15.11816406 2.28300781 16.05273438 2.29296875 17.015625 C2.3086792 17.87446289 2.32438965 18.73330078 2.34057617 19.61816406 C1.93095949 22.48283816 0.886136 23.85063164 -1 26 C-1.33 25.01 -1.66 24.02 -2 23 C-1.67 22.67 -1.34 22.34 -1 22 C-0.84285346 20.36743242 -0.74914586 18.72864662 -0.68359375 17.08984375 C-0.62075195 15.60581055 -0.62075195 15.60581055 -0.55664062 14.09179688 C-0.49766602 12.53041992 -0.49766602 12.53041992 -0.4375 10.9375 C-0.39431641 9.89271484 -0.35113281 8.84792969 -0.30664062 7.77148438 C-0.20018775 5.18113116 -0.0981724 2.59067814 0 0 Z " fill="#CFB7EC" transform="translate(340,298)"/>
<path d="M0 0 C5.15662651 1.28915663 5.15662651 1.28915663 7 4 C7.29296875 7.13671875 7.29296875 7.13671875 7.1875 10.6875 C7.14689453 12.45673828 7.14689453 12.45673828 7.10546875 14.26171875 C7.07066406 15.16535156 7.03585937 16.06898438 7 17 C6.67 17 6.34 17 6 17 C5.67 13.04 5.34 9.08 5 5 C3.68 4.67 2.36 4.34 1 4 C1.33 9.94 1.66 15.88 2 22 C1.34 22 0.68 22 0 22 C0 14.74 0 7.48 0 0 Z " fill="#A99AD6" transform="translate(305,234)"/>
<path d="M0 0 C0.66 0 1.32 0 2 0 C2.06058594 0.91523438 2.12117188 1.83046875 2.18359375 2.7734375 C2.26738281 3.96195312 2.35117187 5.15046875 2.4375 6.375 C2.51871094 7.55835938 2.59992188 8.74171875 2.68359375 9.9609375 C2.81084936 12.91518901 2.81084936 12.91518901 4 15 C3.01 15.33 2.02 15.66 1 16 C0.34 15.67 -0.32 15.34 -1 15 C-1.02685412 12.68756208 -1.04632841 10.3750373 -1.0625 8.0625 C-1.07410156 6.77472656 -1.08570313 5.48695313 -1.09765625 4.16015625 C-1 1 -1 1 0 0 Z " fill="#553375" transform="translate(342,342)"/>
<path d="M0 0 C0.89749822 3.0682638 1.11711768 5.79269976 1.09765625 8.984375 C1.09443359 9.91894531 1.09121094 10.85351562 1.08789062 11.81640625 C1.07951172 12.78449219 1.07113281 13.75257813 1.0625 14.75 C1.05798828 15.73355469 1.05347656 16.71710938 1.04882812 17.73046875 C1.03706483 20.15370791 1.02062684 22.57682273 1 25 C0.67 25 0.34 25 0 25 C0 18.4 0 11.8 0 5 C-2.31 5 -4.62 5 -7 5 C-6 2 -6 2 -4.0625 0.8125 C-2 0 -2 0 0 0 Z " fill="#7C69AA" transform="translate(197,230)"/>
<path d="M0 0 C0 3.96 0 7.92 0 12 C-0.99 12.33 -1.98 12.66 -3 13 C-4.26237731 10.47524538 -4.09856404 8.68799534 -4.0625 5.875 C-4.05347656 4.96492187 -4.04445312 4.05484375 -4.03515625 3.1171875 C-4.02355469 2.41851562 -4.01195312 1.71984375 -4 1 C-2 0 -2 0 0 0 Z " fill="#D4CCF2" transform="translate(197,238)"/>
<path d="M0 0 C0.33 0 0.66 0 1 0 C1.84023188 4.35332736 2.10770995 8.44442519 2.0625 12.875 C2.05347656 14.02742188 2.04445313 15.17984375 2.03515625 16.3671875 C2.02355469 17.23601562 2.01195312 18.10484375 2 19 C1.67 19 1.34 19 1 19 C0.67 16.36 0.34 13.72 0 11 C-0.33 14.3 -0.66 17.6 -1 21 C-1.33 21 -1.66 21 -2 21 C-2.02691685 18.54159395 -2.04679802 16.08348118 -2.0625 13.625 C-2.07087891 12.92632812 -2.07925781 12.22765625 -2.08789062 11.5078125 C-2.11328125 6.2265625 -2.11328125 6.2265625 -1 4 C-0.64830932 2.67139075 -0.31229724 1.33841672 0 0 Z " fill="#5F397A" transform="translate(375,242)"/>
<path d="M0 0 C0.78052734 -0.01224609 1.56105469 -0.02449219 2.36523438 -0.03710938 C4.39070035 -0.04235217 6.41572552 0.06515672 8.4375 0.1875 C9.0975 0.8475 9.7575 1.5075 10.4375 2.1875 C-0.4525 2.6825 -0.4525 2.6825 -11.5625 3.1875 C-11.5625 2.5275 -11.5625 1.8675 -11.5625 1.1875 C-7.6986104 -0.1004632 -4.02572278 0.00334085 0 0 Z " fill="#3A4493" transform="translate(251.5625,188.8125)"/>
<path d="M0 0 C16.8929385 -0.3690205 16.8929385 -0.3690205 24 2 C24 2.99 24 3.98 24 5 C22.68 5 21.36 5 20 5 C20 4.34 20 3.68 20 3 C13.4 2.34 6.8 1.68 0 1 C0 0.67 0 0.34 0 0 Z " fill="#4E5593" transform="translate(243,178)"/>
<path d="M0 0 C3.3 0 6.6 0 10 0 C9.67 0.99 9.34 1.98 9 3 C9.66 3.33 10.32 3.66 11 4 C7.04 4 3.08 4 -1 4 C-0.67 2.68 -0.34 1.36 0 0 Z " fill="#6A3F90" transform="translate(345,354)"/>
<path d="M0 0 C0.66 0 1.32 0 2 0 C2.16768291 2.93744524 2.33418858 5.87494904 2.5 8.8125 C2.54769531 9.64587891 2.59539062 10.47925781 2.64453125 11.33789062 C2.68964844 12.14033203 2.73476562 12.94277344 2.78125 13.76953125 C2.82314453 14.50792236 2.86503906 15.24631348 2.90820312 16.00708008 C2.98479533 17.66990494 3 19.3354121 3 21 C3.1496644 22.39775858 3.31720487 23.7936871 3.5 25.1875 C3.665 26.445625 3.83 27.70375 4 29 C3.01 29.33 2.02 29.66 1 30 C0.67 20.1 0.34 10.2 0 0 Z " fill="#F1E2FB" transform="translate(169,256)"/>
<path d="M0 0 C0 0.33 0 0.66 0 1 C-1.98 1.33 -3.96 1.66 -6 2 C-5.34 2.66 -4.68 3.32 -4 4 C-9.75 5.125 -9.75 5.125 -12 4 C-14.0765295 4.67013266 -16.02616805 5.53845044 -18.02734375 6.40625 C-20 7 -20 7 -23 6 C-20.89615302 5.18667257 -18.79191143 4.37436583 -16.6875 3.5625 C-15.51574219 3.11003906 -14.34398437 2.65757812 -13.13671875 2.19140625 C-8.44533763 0.40949935 -5.02793932 -0.09486678 0 0 Z " fill="#5C3276" transform="translate(247,143)"/>
<path d="M0 0 C0.33 0.99 0.66 1.98 1 3 C-2.3 3.66 -5.6 4.32 -9 5 C-9.66 3.68 -10.32 2.36 -11 1 C-3.13953488 -1.56976744 -3.13953488 -1.56976744 0 0 Z " fill="#4A5398" transform="translate(241,180)"/>
<path d="M0 0 C3.63 0.66 7.26 1.32 11 2 C9.68 2.33 8.36 2.66 7 3 C7.33 3.33 7.66 3.66 8 4 C4.58860997 5.09651823 1.79344419 4.94215473 -1.75 4.5625 C-2.73484375 4.46066406 -3.7196875 4.35882813 -4.734375 4.25390625 C-5.48203125 4.17011719 -6.2296875 4.08632813 -7 4 C-7 3.67 -7 3.34 -7 3 C-3.535 2.505 -3.535 2.505 0 2 C0 1.34 0 0.68 0 0 Z " fill="#7A549B" transform="translate(187,272)"/>
<path d="M0 0 C4.70689655 2.4137931 4.70689655 2.4137931 6 5 C6 7 6 7 4.5625 8.75 C3.7890625 9.36875 3.7890625 9.36875 3 10 C2.34 8.02 1.68 6.04 1 4 C-1.31 4 -3.62 4 -6 4 C-6 3.67 -6 3.34 -6 3 C-4.02 2.67 -2.04 2.34 0 2 C0 1.34 0 0.68 0 0 Z " fill="#6B4591" transform="translate(164,253)"/>
<path d="M0 0 C0.66 0.33 1.32 0.66 2 1 C2 1.33 2 1.66 2 2 C3.32 2.33 4.64 2.66 6 3 C4.25307205 3.67467562 2.50231475 4.33944156 0.75 5 C-0.71179688 5.556875 -0.71179688 5.556875 -2.203125 6.125 C-5 7 -5 7 -9 7 C-9 6.34 -9 5.68 -9 5 C-7.35 5 -5.7 5 -4 5 C-4.33 4.01 -4.66 3.02 -5 2 C-2.625 0.9375 -2.625 0.9375 0 0 Z " fill="#525995" transform="translate(231,192)"/>
<path d="M0 0 C0.66 0.33 1.32 0.66 2 1 C1.34 1.66 0.68 2.32 0 3 C-0.33 3.99 -0.66 4.98 -1 6 C-2.75 7.75 -2.75 7.75 -5 9 C-7.75 8.6875 -7.75 8.6875 -10 8 C-6.97727468 4.74475735 -3.74281699 2.38179263 0 0 Z " fill="#5F367D" transform="translate(222,150)"/>
<path d="M0 0 C0.33 0 0.66 0 1 0 C1.05384521 2.29141286 1.09272087 4.58318188 1.125 6.875 C1.14820313 8.15117187 1.17140625 9.42734375 1.1953125 10.7421875 C1 14 1 14 -1 16 C-1.99 16 -2.98 16 -4 16 C-4 14.02 -4 12.04 -4 10 C-2.68 10 -1.36 10 0 10 C0 6.7 0 3.4 0 0 Z " fill="#DCCAF9" transform="translate(310,239)"/>
<path d="M0 0 C0.33 0 0.66 0 1 0 C1 2.64 1 5.28 1 8 C4.63 8 8.26 8 12 8 C12 7.34 12 6.68 12 6 C14.31 6.66 16.62 7.32 19 8 C19 8.33 19 8.66 19 9 C12.73 9 6.46 9 0 9 C0 6.03 0 3.06 0 0 Z " fill="#F1DFFB" transform="translate(170,287)"/>
<path d="M0 0 C0.33 0.99 0.66 1.98 1 3 C-0.093125 3.12375 -1.18625 3.2475 -2.3125 3.375 C-6.07381802 3.75464801 -6.07381802 3.75464801 -9 6 C-9.33 4.68 -9.66 3.36 -10 2 C-6.3558226 -0.4294516 -4.28758728 -0.16179575 0 0 Z " fill="#633A83" transform="translate(164,253)"/>
<path d="M0 0 C2.35981813 0.93578995 4.69631264 1.93347808 7 3 C7 3.99 7 4.98 7 6 C5.3125 6.75 5.3125 6.75 3 7 C0.25 5.1875 0.25 5.1875 -2 3 C-2 2.34 -2 1.68 -2 1 C-1.34 0.67 -0.68 0.34 0 0 Z " fill="#62418C" transform="translate(191,252)"/>
<path d="M0 0 C0.99 0.33 1.98 0.66 3 1 C3.08090971 2.62418745 3.13914995 4.24951745 3.1875 5.875 C3.22230469 6.77992188 3.25710938 7.68484375 3.29296875 8.6171875 C3.19628906 9.40351563 3.09960938 10.18984375 3 11 C2.01 11.66 1.02 12.32 0 13 C0 8.71 0 4.42 0 0 Z " fill="#3A418C" transform="translate(291,228)"/>
<path d="M0 0 C2.64 0.33 5.28 0.66 8 1 C8 1.99 8 2.98 8 4 C8.99 4.33 9.98 4.66 11 5 C10.34 5.66 9.68 6.32 9 7 C4.545 5.02 4.545 5.02 0 3 C0 2.01 0 1.02 0 0 Z " fill="#6D448A" transform="translate(340,207)"/>
<path d="M0 0 C0.66 0.33 1.32 0.66 2 1 C1.34 2.32 0.68 3.64 0 5 C0 4.34 0 3.68 0 3 C-0.66 3 -1.32 3 -2 3 C-2 3.66 -2 4.32 -2 5 C-4.97 5 -7.94 5 -11 5 C-10.34 4.01 -9.68 3.02 -9 2 C-6.8359375 1.70703125 -6.8359375 1.70703125 -4.375 1.8125 C-3.55773437 1.83957031 -2.74046875 1.86664063 -1.8984375 1.89453125 C-0.95871094 1.94673828 -0.95871094 1.94673828 0 2 C0 1.34 0 0.68 0 0 Z " fill="#613482" transform="translate(220,294)"/>
<path d="M0 0 C2.95290136 1.37098992 5.60419752 2.77532627 8 5 C8 6.32 8 7.64 8 9 C4.20620942 7.50958227 2.31656242 5.30937488 0 2 C0 1.34 0 0.68 0 0 Z " fill="#643F85" transform="translate(204,278)"/>
<path d="M0 0 C4.31392226 0.4793247 6.16569547 1.7457985 9 5 C7.02 5.99 7.02 5.99 5 7 C2.5 5.1875 2.5 5.1875 0 3 C0 2.01 0 1.02 0 0 Z " fill="#6A4994" transform="translate(305,230)"/>
<path d="M0 0 C0.33 0 0.66 0 1 0 C1 2.64 1 5.28 1 8 C6.61 8 12.22 8 18 8 C18 8.33 18 8.66 18 9 C17.02417969 9.06058594 16.04835937 9.12117188 15.04296875 9.18359375 C13.13451172 9.30927734 13.13451172 9.30927734 11.1875 9.4375 C9.92292969 9.51871094 8.65835938 9.59992188 7.35546875 9.68359375 C4.00818107 9.87184547 4.00818107 9.87184547 1 11 C-0.20272819 8.59454362 -0.10071472 7.05003047 -0.0625 4.375 C-0.05347656 3.55773437 -0.04445312 2.74046875 -0.03515625 1.8984375 C-0.02355469 1.27195312 -0.01195312 0.64546875 0 0 Z " fill="#5D397C" transform="translate(169,288)"/>
<path d="M0 0 C3 2 3 2 3.8125 3.8125 C4.0557245 6.65011917 3.20169772 8.45522836 2 11 C3.98 11 5.96 11 8 11 C8 11.33 8 11.66 8 12 C6.02 12.33 4.04 12.66 2 13 C1.79503906 12.44570313 1.59007812 11.89140625 1.37890625 11.3203125 C1.10949219 10.59585937 0.84007812 9.87140625 0.5625 9.125 C0.29566406 8.40570313 0.02882813 7.68640625 -0.24609375 6.9453125 C-0.97916854 4.96351155 -0.97916854 4.96351155 -2 3 C-1.34 3 -0.68 3 0 3 C0 2.01 0 1.02 0 0 Z " fill="#724B8B" transform="translate(343,294)"/>
<path d="M0 0 C1.32 0 2.64 0 4 0 C4 1.32 4 2.64 4 4 C-0.455 5.485 -0.455 5.485 -5 7 C-4.67 6.01 -4.34 5.02 -4 4 C-3.34 4 -2.68 4 -2 4 C-1.34 2.68 -0.68 1.36 0 0 Z " fill="#69418A" transform="translate(153,217)"/>
<path d="M0 0 C4 2 4 2 6 5 C6.25 8.5625 6.25 8.5625 6 12 C5.34 12.66 4.68 13.32 4 14 C2.68 9.38 1.36 4.76 0 0 Z " fill="#6E4089" transform="translate(310,181)"/>
<path d="M0 0 C2.02350324 3.03525486 2.32124018 4.19426202 2.625 7.6875 C2.69976562 8.49574219 2.77453125 9.30398437 2.8515625 10.13671875 C2.90054687 10.75160156 2.94953125 11.36648437 3 12 C2.67 11.34 2.34 10.68 2 10 C1.01 10 0.02 10 -1 10 C-1.125 2.25 -1.125 2.25 0 0 Z " fill="#62317C" transform="translate(316,187)"/>
<path d="M0 0 C0 0.66 0 1.32 0 2 C-0.99 2.495 -0.99 2.495 -2 3 C-2.33 3.99 -2.66 4.98 -3 6 C-5.0625 6.6875 -5.0625 6.6875 -7 7 C-7.66 6.01 -8.32 5.02 -9 4 C-2.25 0 -2.25 0 0 0 Z " fill="#5C387C" transform="translate(151,219)"/>
<path d="M0 0 C1.32 0.33 2.64 0.66 4 1 C3.54109375 1.38671875 3.0821875 1.7734375 2.609375 2.171875 C-0.725081 5.00195951 -3.96501303 7.84361355 -7 11 C-5.5140084 6.40693504 -3.14985318 3.56430755 0 0 Z " fill="#E8D4F1" transform="translate(139,230)"/>
<path d="M0 0 C2.97 0 5.94 0 9 0 C9.33 0.99 9.66 1.98 10 3 C5.545 3.495 5.545 3.495 1 4 C0.67 2.68 0.34 1.36 0 0 Z " fill="#673B8D" transform="translate(178,272)"/>
<path d="M0 0 C0 0.99 0 1.98 0 3 C-5.94 2.67 -11.88 2.34 -18 2 C-18 1.67 -18 1.34 -18 1 C-15.75013201 0.83156069 -13.50009983 0.66531346 -11.25 0.5 C-9.37054688 0.36078125 -9.37054688 0.36078125 -7.453125 0.21875 C-4.97265229 0.06161598 -2.48544483 0 0 0 Z " fill="#6D73A4" transform="translate(264,191)"/>
<path d="M0 0 C0.99 0 1.98 0 3 0 C3 4.95 3 9.9 3 15 C2.67 15 2.34 15 2 15 C1.93941406 14.33613281 1.87882813 13.67226563 1.81640625 12.98828125 C1.20136493 6.45091919 1.20136493 6.45091919 0 0 Z " fill="#5B377C" transform="translate(167,342)"/>
<path d="M0 0 C2 1 2 1 3 3 C0.36 3.99 -2.28 4.98 -5 6 C-5.66 5.34 -6.32 4.68 -7 4 C-1.7265625 0.77734375 -1.7265625 0.77734375 0 0 Z " fill="#6E3D8C" transform="translate(227,149)"/>
<path d="M0 0 C0.66 0 1.32 0 2 0 C2 2.64 2 5.28 2 8 C1.01 8 0.02 8 -1 8 C-1.04241723 5.66705225 -1.04092937 3.33297433 -1 1 C-0.67 0.67 -0.34 0.34 0 0 Z " fill="#603885" transform="translate(342,342)"/>
<path d="M0 0 C0.66 0.33 1.32 0.66 2 1 C1.34 2.65 0.68 4.3 0 6 C-0.99 6 -1.98 6 -3 6 C-3.66 5.34 -4.32 4.68 -5 4 C-3.35 2.68 -1.7 1.36 0 0 Z " fill="#704A8F" transform="translate(227,285)"/>
<path d="M0 0 C0.33 0.99 0.66 1.98 1 3 C0.01 3.33 -0.98 3.66 -2 4 C-1.01 4.33 -0.02 4.66 1 5 C-1.875 5.125 -1.875 5.125 -5 5 C-5.66 4.34 -6.32 3.68 -7 3 C-4.69 2.01 -2.38 1.02 0 0 Z " fill="#6B4092" transform="translate(335,327)"/>
<path d="M0 0 C1.9451 2.91765 2.45276317 4.62537285 3 8 C1.68 7.67 0.36 7.34 -1 7 C-1.625 4.625 -1.625 4.625 -2 2 C-1.34 1.34 -0.68 0.68 0 0 Z " fill="#684388" transform="translate(127,267)"/>
<path d="M0 0 C4.42857143 5.14285714 4.42857143 5.14285714 5 9 C2.525 8.01 2.525 8.01 0 7 C0 4.69 0 2.38 0 0 Z " fill="#5C337B" transform="translate(367,225)"/>
<path d="M0 0 C1.32 1.32 2.64 2.64 4 4 C3.67 4.99 3.34 5.98 3 7 C2.01 7 1.02 7 0 7 C-0.66 5.68 -1.32 4.36 -2 3 C-1.34 2.01 -0.68 1.02 0 0 Z " fill="#505492" transform="translate(295,200)"/>
<path d="M0 0 C0.33 1.32 0.66 2.64 1 4 C1.66 4 2.32 4 3 4 C3 4.66 3 5.32 3 6 C4.65 6 6.3 6 8 6 C7.67 6.66 7.34 7.32 7 8 C4.69 8 2.38 8 0 8 C-1.43088528 5.13822943 -0.59991697 3.06624227 0 0 Z " fill="#4A51A3" transform="translate(201,222)"/>
<path d="M0 0 C0.99 0 1.98 0 3 0 C2.67 1.65 2.34 3.3 2 5 C1.01 5 0.02 5 -1 5 C-1.33 5.66 -1.66 6.32 -2 7 C-1.125 1.125 -1.125 1.125 0 0 Z " fill="#3F4682" transform="translate(202,210)"/>
<path d="M0 0 C2.31 0.33 4.62 0.66 7 1 C7.33 1.99 7.66 2.98 8 4 C3.545 3.01 3.545 3.01 -1 2 C-0.67 1.34 -0.34 0.68 0 0 Z " fill="#6E418B" transform="translate(331,205)"/>
<path d="M0 0 C2.4375 0.75 2.4375 0.75 5 2 C5.8125 4.125 5.8125 4.125 6 6 C3.69 5.34 1.38 4.68 -1 4 C-0.67 2.68 -0.34 1.36 0 0 Z " fill="#4A5390" transform="translate(216,192)"/>
<path d="M0 0 C1.65 1.65 3.3 3.3 5 5 C4.34 5 3.68 5 3 5 C2.67 5.66 2.34 6.32 2 7 C0.4375 5.75 0.4375 5.75 -1 4 C-0.6875 1.8125 -0.6875 1.8125 0 0 Z " fill="#5E367D" transform="translate(298,159)"/>
<path d="M0 0 C1.65 0 3.3 0 5 0 C4.34 0.66 3.68 1.32 3 2 C5.475 2.99 5.475 2.99 8 4 C4.18510326 5.46726798 1.70988378 4.43336419 -2 3 C-1.34 2.67 -0.68 2.34 0 2 C0 1.34 0 0.68 0 0 Z " fill="#724E8C" transform="translate(262,143)"/>
<path d="M0 0 C0.99 0.33 1.98 0.66 3 1 C3.33 1.99 3.66 2.98 4 4 C2.02 4.99 2.02 4.99 0 6 C-0.38218767 4.34385343 -0.71395102 2.67542976 -1 1 C-0.67 0.67 -0.34 0.34 0 0 Z " fill="#6A3E91" transform="translate(221,320)"/>
<path d="M0 0 C2.6875 0.3125 2.6875 0.3125 5 1 C4.67 1.99 4.34 2.98 4 4 C1.69 3.67 -0.62 3.34 -3 3 C-1.8125 1.4375 -1.8125 1.4375 0 0 Z " fill="#673B99" transform="translate(350,307)"/>
<path d="M0 0 C0 1.65 0 3.3 0 5 C-0.99 5.33 -1.98 5.66 -3 6 C-3.66 5.34 -4.32 4.68 -5 4 C-1.125 0 -1.125 0 0 0 Z " fill="#653C83" transform="translate(350,294)"/>
<path d="M0 0 C0 1.65 0 3.3 0 5 C-2.97 4.505 -2.97 4.505 -6 4 C-2.25 0 -2.25 0 0 0 Z " fill="#694290" transform="translate(358,289)"/>
<path d="M0 0 C1.32 0 2.64 0 4 0 C2.75023244 3.65316671 2.32901247 4.78065836 -1 7 C-1.04254356 5.00045254 -1.04080783 2.99958364 -1 1 C-0.67 0.67 -0.34 0.34 0 0 Z " fill="#56307A" transform="translate(367,277)"/>
<path d="M0 0 C-0.33 1.32 -0.66 2.64 -1 4 C-3.97 3.505 -3.97 3.505 -7 3 C-4.49955934 -0.00052879 -4.2621484 0 0 0 Z " fill="#714E95" transform="translate(198,182)"/>
<path d="M0 0 C2.31 0 4.62 0 7 0 C7.33 1.32 7.66 2.64 8 4 C5.36 3.01 2.72 2.02 0 1 C0 0.67 0 0.34 0 0 Z " fill="#542D7B" transform="translate(144,296)"/>
<path d="M0 0 C1.32 0.33 2.64 0.66 4 1 C3.67 1.99 3.34 2.98 3 4 C1.35 4 -0.3 4 -2 4 C-1.34 2.68 -0.68 1.36 0 0 Z " fill="#E4CBFB" transform="translate(228,289)"/>
<path d="M0 0 C0.68707555 2.49064888 1 4.37886292 1 7 C-0.32 7 -1.64 7 -3 7 C-1.125 1.125 -1.125 1.125 0 0 Z " fill="#592B76" transform="translate(129,237)"/>
<path d="M0 0 C0 2.83967231 -0.40267181 5.23735711 -1 8 C-2.32 7.34 -3.64 6.68 -5 6 C-3.35 4.02 -1.7 2.04 0 0 Z " fill="#553074" transform="translate(136,228)"/>
<path d="M0 0 C1.98 1.65 3.96 3.3 6 5 C4.02 5.99 4.02 5.99 2 7 C1.34 4.69 0.68 2.38 0 0 Z " fill="#5B337A" transform="translate(359,216)"/>
<path d="M0 0 C1.32 0 2.64 0 4 0 C4.33 1.65 4.66 3.3 5 5 C3.68 4.67 2.36 4.34 1 4 C0.67 2.68 0.34 1.36 0 0 Z " fill="#424883" transform="translate(296,206)"/>
<path d="M0 0 C0.94875 0.04125 1.8975 0.0825 2.875 0.125 C2.545 1.115 2.215 2.105 1.875 3.125 C-0.435 2.795 -2.745 2.465 -5.125 2.125 C-3.125 0.125 -3.125 0.125 0 0 Z " fill="#6F3C8B" transform="translate(244.125,143.875)"/>
</svg>
