<?xml version="1.0" encoding="UTF-8"?>
<svg version="1.1" xmlns="http://www.w3.org/2000/svg" width="219" height="256">
<path d="M0 0 C1.43745323 -0.0076664 1.43745323 -0.0076664 2.90394592 -0.01548767 C6.06688711 -0.02937083 9.22961012 -0.02842806 12.39257812 -0.02612305 C14.59305909 -0.03001023 16.79353931 -0.03434495 18.99401855 -0.03910828 C23.60394728 -0.04656742 28.21379942 -0.04628107 32.82373047 -0.04101562 C38.73202214 -0.0352167 44.64000076 -0.05216388 50.54824066 -0.0753603 C55.09155104 -0.09008803 59.63478582 -0.09097072 64.17811584 -0.08785057 C66.35661947 -0.08836411 68.5351273 -0.09360791 70.71360779 -0.10366249 C73.75849811 -0.11599286 76.80277581 -0.10925576 79.84765625 -0.09765625 C80.74754776 -0.10529999 81.64743927 -0.11294373 82.57460022 -0.12081909 C87.35294226 -0.08056588 90.54684786 0.16474689 94.42382812 3.2746582 C97.64616816 7.25785905 97.85343778 10.93121889 97.78710938 15.8762207 C97.78785713 16.95364029 97.78785713 16.95364029 97.78862 18.05282593 C97.78628877 19.56397279 97.77661656 21.07512423 97.76000977 22.58618164 C97.73633118 24.8993593 97.73946618 27.21138939 97.74609375 29.5246582 C97.74051912 30.99601924 97.7334106 32.46737543 97.72460938 33.9387207 C97.72552078 34.62938629 97.72643219 35.32005188 97.72737122 36.03164673 C97.67361517 39.66530527 97.49772036 41.16381985 95.42382812 44.2746582 C93.25976562 44.56762695 93.25976562 44.56762695 90.79882812 44.4621582 C89.9815625 44.43508789 89.16429687 44.40801758 88.32226562 44.38012695 C87.69578125 44.34532227 87.06929688 44.31051758 86.42382812 44.2746582 C86.70527197 48.53130595 86.70527197 48.53130595 88.42382812 52.2746582 C91.34362658 53.92803805 94.28585559 55.00262745 97.43945312 56.1418457 C103.67960929 58.51049137 106.82147945 62.26721118 109.66210938 68.2121582 C111.23421946 72.46894859 111.55000002 76.54939376 111.55754089 81.06111145 C111.56393837 82.7958094 111.56393837 82.7958094 111.57046509 84.56555176 C111.5700119 85.82540894 111.56955872 87.08526611 111.5690918 88.38330078 C111.57208575 89.73064771 111.57548882 91.07799379 111.57926941 92.42533875 C111.58809024 96.07836047 111.59044673 99.73135877 111.5910852 103.38439012 C111.59179686 105.66914694 111.59393341 107.95389783 111.59658241 110.23865318 C111.60582995 118.21656039 111.6099181 126.1944509 111.60913086 134.17236328 C111.60853043 141.59715347 111.61907683 149.02187091 111.63487452 156.4466427 C111.64797153 162.8306833 111.65331384 169.21470019 111.65267545 175.59875411 C111.65242107 179.40739767 111.655239 183.21597658 111.6658535 187.0246067 C111.67557075 190.60906642 111.67558895 194.19340017 111.66833687 197.77786446 C111.66680116 199.71097553 111.67511267 201.64408669 111.68377686 203.57717896 C111.64681991 213.84113865 110.84593191 221.85255441 103.23632812 229.4621582 C96.2527197 233.96270586 89.14245187 234.71625383 80.99804688 234.6628418 C79.99681793 234.66809875 78.99558899 234.67335571 77.96401978 234.67877197 C74.67962692 234.69189306 71.39572526 234.68326174 68.11132812 234.6730957 C65.81404529 234.6751187 63.51676307 234.67803202 61.21948242 234.68179321 C56.41481384 234.68620589 51.61031307 234.67981942 46.80566406 234.66577148 C40.66245667 234.64868046 34.51964256 234.65852728 28.37644958 234.67648888 C23.63567163 234.68735516 18.89498614 234.68386729 14.15420532 234.6761055 C11.88969882 234.67411137 9.62518379 234.67653497 7.36068726 234.68354416 C4.19010332 234.6912054 1.02014686 234.67948872 -2.15039062 234.6628418 C-3.07637054 234.66891449 -4.00235046 234.67498718 -4.95639038 234.6812439 C-12.40260144 234.60920786 -18.58204726 233.19541739 -24.88867188 229.1496582 C-32.06703692 221.47047699 -32.15854564 213.06161505 -32.09375 202.97753906 C-32.09917946 201.5507791 -32.10630673 200.12402475 -32.11499023 198.69728088 C-32.13312727 194.84601829 -32.12619676 190.99518733 -32.11347389 187.1439178 C-32.10329796 183.1011067 -32.11275208 179.05833085 -32.11901855 175.01551819 C-32.12628083 168.22935395 -32.11674384 161.44336426 -32.09765625 154.65722656 C-32.07588136 146.82552645 -32.0829489 138.99424283 -32.10496187 131.16255277 C-32.12314603 124.42171393 -32.12565977 117.68100006 -32.1152072 110.9401446 C-32.10898991 106.92136568 -32.10808791 102.90278219 -32.12135315 98.88401604 C-32.1329555 95.10564346 -32.12480691 91.32780517 -32.10177612 87.54948997 C-32.09651265 86.16766494 -32.09796217 84.78579451 -32.10682678 83.40398788 C-32.15891494 74.45580065 -31.63162794 68.19787561 -25.78710938 61.1027832 C-22.0592637 57.89842224 -18.87761834 55.86951567 -14.20117188 54.2746582 C-10.7393299 53.14749494 -10.7393299 53.14749494 -8.49804688 50.4777832 C-7.84290091 48.33540439 -7.84290091 48.33540439 -7.57617188 45.2746582 C-9.49429688 45.0890332 -9.49429688 45.0890332 -11.45117188 44.8996582 C-15.32617188 44.5246582 -15.32617188 44.5246582 -17.57617188 42.2746582 C-17.78822096 39.68011985 -17.88015249 37.19505055 -17.87695312 34.59887695 C-17.88123825 33.83670364 -17.88552338 33.07453033 -17.88993835 32.28926086 C-17.89568645 30.67445875 -17.89617838 29.05963075 -17.8918457 27.44482422 C-17.8886973 24.98204847 -17.91209685 22.52048743 -17.9375 20.05786133 C-17.93977422 18.48820138 -17.94047592 16.91853821 -17.93945312 15.34887695 C-17.94866287 14.61537521 -17.95787262 13.88187347 -17.96736145 13.12614441 C-17.92744893 8.67985043 -17.47752465 5.71187671 -14.57617188 2.2746582 C-9.90874479 -0.31100309 -5.18656486 -0.0142787 0 0 Z " fill="#2A286B" transform="translate(71.576171875,7.725341796875)"/>
<path d="M0 0 C42.57 0 85.14 0 129 0 C129 28.05 129 56.1 129 85 C86.43 85 43.86 85 0 85 C0 56.95 0 28.9 0 0 Z " fill="#D5D5F6" transform="translate(47,105)"/>
<path d="M0 0 C26.73 0 53.46 0 81 0 C81.495 4.95 81.495 4.95 82 10 C83.44145379 13.56841981 84.2952956 14.63391979 87.70703125 16.40625 C88.73183594 16.7671875 89.75664062 17.128125 90.8125 17.5 C97.13203087 19.93000099 101.17715878 22.26573817 105 28 C105.22705078 30.26831055 105.22705078 30.26831055 105.1953125 32.88671875 C105.18564453 34.2934082 105.18564453 34.2934082 105.17578125 35.72851562 C105.15064453 37.19321289 105.15064453 37.19321289 105.125 38.6875 C105.11597656 39.67556641 105.10695312 40.66363281 105.09765625 41.68164062 C105.0740843 44.12133765 105.04118022 46.56054697 105 49 C88.19776179 49.02332875 71.39552861 49.04097906 54.59327793 49.05181217 C46.79224164 49.05697518 38.99121539 49.06401797 31.19018555 49.07543945 C24.39323687 49.08538615 17.59629546 49.09185339 10.79933971 49.09408849 C7.19821869 49.09539563 3.59711848 49.09848164 -0.0039959 49.10573006 C-4.01756602 49.11374364 -8.03109964 49.11399115 -12.04467773 49.11352539 C-13.84865273 49.1189183 -13.84865273 49.1189183 -15.68907166 49.12442017 C-16.77587219 49.1230455 -17.86267273 49.12167084 -18.98240662 49.12025452 C-19.93277518 49.12117631 -20.88314375 49.1220981 -21.86231136 49.12304783 C-24 49 -24 49 -25 48 C-25.18173161 45.11016951 -25.27834069 42.26715521 -25.3125 39.375 C-25.35600586 38.18197266 -25.35600586 38.18197266 -25.40039062 36.96484375 C-25.47364649 30.10133273 -23.72406702 25.889162 -18.9375 20.8125 C-16.08078121 19.04984373 -13.61235348 18.15936051 -10.4375 17.125 C-6.76014691 15.84312322 -5.14962891 15.1531915 -2.375 12.3125 C-0.4874058 8.20018787 -0.4874058 8.20018787 0 0 Z " fill="#018AF9" transform="translate(71,51)"/>
<path d="M0 0 C42.57 0 85.14 0 129 0 C129 29 129 29 122 37 C118.87375971 39.0841602 118.1768561 39.25131253 114.62420654 39.26069641 C113.72988419 39.26778122 112.83556183 39.27486603 111.91413879 39.28216553 C110.93539291 39.27968811 109.95664703 39.27721069 108.94824219 39.2746582 C107.39900307 39.2823246 107.39900307 39.2823246 105.81846619 39.29014587 C102.39454394 39.30407722 98.97082227 39.303082 95.546875 39.30078125 C93.16896489 39.30466709 90.79105548 39.30900153 88.41314697 39.31376648 C83.42303216 39.32123695 78.43298808 39.32093204 73.44287109 39.31567383 C67.05269652 39.30988737 60.66281255 39.3267865 54.272686 39.3500185 C49.35870677 39.36476472 44.4447973 39.36562615 39.53079987 39.36250877 C37.17532019 39.36302184 34.81983659 39.36825683 32.46437836 39.37832069 C29.16584029 39.39068046 25.86786525 39.38389497 22.56933594 39.37231445 C21.59868698 39.37995819 20.62803802 39.38760193 19.62797546 39.39547729 C12.88127324 39.3432209 7.93780556 38.47394152 2.625 34 C-4.62108236 25.08174479 0 8.50052544 0 0 Z " fill="#0189F8" transform="translate(47,196)"/>
<path d="M0 0 C1.0658432 -0.0033284 2.1316864 -0.0066568 3.22982788 -0.01008606 C5.47385224 -0.01513077 7.71788404 -0.01749515 9.96191406 -0.01733398 C13.39400488 -0.01952842 16.82577812 -0.03773202 20.2578125 -0.05664062 C22.44270724 -0.05957346 24.6276035 -0.06155899 26.8125 -0.0625 C28.34857407 -0.07327827 28.34857407 -0.07327827 29.91567993 -0.08427429 C30.87372528 -0.08119766 31.83177063 -0.07812103 32.81884766 -0.07495117 C33.6571109 -0.07637619 34.49537415 -0.07780121 35.35903931 -0.07926941 C40.95165369 0.49342307 44.16682035 2.96024874 47.7734375 7.16796875 C49.07669449 10.73607504 48.90280795 14.33036525 48.90625 18.09375 C48.90720673 18.75956589 48.90816345 19.42538177 48.90914917 20.1113739 C48.90982807 21.51752823 48.90799404 22.92368573 48.90380859 24.32983398 C48.89848162 26.46280111 48.90375022 28.59555523 48.91015625 30.72851562 C48.90949492 32.10026088 48.90821263 33.47200599 48.90625 34.84375 C48.90512207 36.08036377 48.90399414 37.31697754 48.90283203 38.59106445 C48.55811683 48.12016342 48.55811683 48.12016342 46.46875 50.91015625 C41.91156944 54.19767457 38.92592208 55.28878061 33.37158203 55.3449707 C31.71438644 55.36422356 31.71438644 55.36422356 30.02371216 55.38386536 C28.82994965 55.39125229 27.63618713 55.39863922 26.40625 55.40625 C25.17937469 55.41432175 23.95249939 55.42239349 22.68844604 55.43070984 C20.0909771 55.44454801 17.49349 55.45527135 14.89599609 55.46313477 C10.92120058 55.48037005 6.94723186 55.52426312 2.97265625 55.56835938 C0.45052696 55.57848427 -2.07160941 55.587001 -4.59375 55.59375 C-5.78346405 55.61125809 -6.9731781 55.62876617 -8.19894409 55.64680481 C-16.46093714 55.6250507 -16.46093714 55.6250507 -20.43798828 53.25073242 C-26.54441538 46.13990393 -25.40853 36.13226126 -25.4140625 27.23046875 C-25.42630859 26.19728516 -25.43855469 25.16410156 -25.45117188 24.09960938 C-25.47937088 9.25753452 -25.47937088 9.25753452 -21.0390625 3.16796875 C-15.13013743 -1.03393352 -6.99266376 0.00762901 0 0 Z " fill="#EB3B42" transform="translate(99.2265625,119.83203125)"/>
<path d="M0 0 C0.92055679 0.00202423 1.84111359 0.00404846 2.78956604 0.00613403 C3.75370926 0.00438171 4.71785248 0.00262939 5.71121216 0.00082397 C8.91508252 -0.00359636 12.11889819 -0.00065591 15.32276917 0.00271606 C17.5385489 0.00204308 19.75432856 0.0010731 21.97010803 -0.00018311 C26.62070924 -0.00166033 31.27129128 0.00049525 35.92189026 0.00515747 C41.89784521 0.01085477 47.87375526 0.00757589 53.84970856 0.00158501 C58.4271631 -0.00201996 63.00460691 -0.00088232 67.58206177 0.0017128 C69.7861939 0.00238225 71.99032699 0.00155303 74.19445801 -0.00076675 C77.26915588 -0.00329222 80.34377994 0.00054581 83.41847229 0.00613403 C84.33902908 0.0041098 85.25958588 0.00208557 86.20803833 0 C92.48975688 0.02126628 92.48975688 0.02126628 93.60401917 1.13552856 C93.60401917 11.03552856 93.60401917 20.93552856 93.60401917 31.13552856 C60.27401917 31.13552856 26.94401917 31.13552856 -7.39598083 31.13552856 C-7.39598083 0.02503854 -7.39598083 0.02503854 0 0 Z " fill="#733AFC" transform="translate(68.39598083496094,14.864471435546875)"/>
<path d="M0 0 C0.33 0 0.66 0 1 0 C1.84090394 3.65741873 2.12744569 7.03684877 2.13371277 10.78645325 C2.14011024 12.5211512 2.14011024 12.5211512 2.14663696 14.29089355 C2.14618378 15.55075073 2.14573059 16.81060791 2.14526367 18.10864258 C2.14825762 19.45598951 2.1516607 20.80333559 2.15544128 22.15068054 C2.16426211 25.80370227 2.16661861 29.45670056 2.16725707 33.10973191 C2.16796874 35.39448873 2.17010528 37.67923963 2.17275429 39.96399498 C2.18200183 47.94190218 2.18608997 55.91979269 2.18530273 63.89770508 C2.18470231 71.32249526 2.19524871 78.74721271 2.2110464 86.17198449 C2.2241434 92.55602509 2.22948571 98.94004198 2.22884732 105.3240959 C2.22859294 109.13273947 2.23141088 112.94131838 2.24202538 116.7499485 C2.25174262 120.33440822 2.25176082 123.91874197 2.24450874 127.50320625 C2.24297303 129.43631733 2.25128454 131.36942848 2.25994873 133.30252075 C2.22299179 143.56648045 1.42210379 151.57789621 -6.1875 159.1875 C-13.21135234 163.71398262 -20.33187551 164.43711718 -28.52099609 164.35644531 C-29.53186279 164.35848969 -30.54272949 164.36053406 -31.58422852 164.36264038 C-34.89748727 164.36562822 -38.21023861 164.34723636 -41.5234375 164.328125 C-43.83509193 164.32506475 -46.14674821 164.32319065 -48.45840454 164.32244873 C-53.28826013 164.31785879 -58.11794777 164.30347856 -62.94775391 164.28125 C-69.14524912 164.25287356 -75.34261283 164.24202742 -81.54016685 164.2375679 C-86.30642007 164.23341771 -91.07264663 164.22360511 -95.83888626 164.21169281 C-98.12509574 164.20598965 -100.41130778 164.20123109 -102.69752121 164.19742584 C-105.88351736 164.19057144 -109.0694084 164.17694524 -112.25537109 164.16113281 C-113.20292267 164.16001495 -114.15047424 164.15889709 -115.1267395 164.15774536 C-116.42602386 164.14918015 -116.42602386 164.14918015 -117.7515564 164.14044189 C-118.50403341 164.13746723 -119.25651043 164.13449257 -120.03178978 164.13142776 C-122 164 -122 164 -125 163 C-125.33 162.01 -125.66 161.02 -126 160 C-127.155 159.67 -128.31 159.34 -129.5 159 C-130.655 158.67 -131.81 158.34 -133 158 C-133.33 157.01 -133.66 156.02 -134 155 C-133.01 154.01 -133.01 154.01 -132 153 C-129.65842899 153.33451014 -127.6947341 154.12564682 -125.50790405 155.02574158 C-120.83296485 156.32412341 -116.45418044 156.31910607 -111.62353516 156.33813477 C-110.59187729 156.34967087 -109.56021942 156.36120697 -108.49729919 156.37309265 C-105.09453801 156.40732048 -101.69195776 156.42588325 -98.2890625 156.44140625 C-96.54156771 156.45176061 -96.54156771 156.45176061 -94.75876999 156.46232414 C-88.59634012 156.49811999 -82.43400138 156.52168223 -76.27148438 156.53540039 C-69.91362258 156.55196606 -63.55686947 156.61043016 -57.19938087 156.67854404 C-52.30251496 156.72334627 -47.40591484 156.73689602 -42.50886154 156.74201775 C-40.1653087 156.74990534 -37.82176422 156.76953222 -35.47841263 156.80124092 C-32.1964832 156.84273006 -28.91735631 156.83984285 -25.63525391 156.82641602 C-24.19174309 156.85945328 -24.19174309 156.85945328 -22.71907043 156.89315796 C-16.28975857 156.80403083 -13.07713861 155.18557523 -8.4737606 150.69750881 C-5.60789397 147.39654266 -5.81423992 144.75359737 -5.68359375 140.4609375 C-5.64169922 139.15898437 -5.59980469 137.85703125 -5.55664062 136.515625 C-5.51682701 135.13541955 -5.47711478 133.75521117 -5.4375 132.375 C-5.39430593 130.98696585 -5.35069135 129.59894472 -5.30664062 128.2109375 C-5.20028 124.80739744 -5.09825286 121.40378222 -5 118 C-4.34 118 -3.68 118 -3 118 C-2.67 117.01 -2.34 116.02 -2 115 C-1.67 115 -1.34 115 -1 115 C-0.505 58.075 -0.505 58.075 0 0 Z " fill="#2D2D6D" transform="translate(181,78)"/>
<path d="M0 0 C0.33 0 0.66 0 1 0 C1 27.72 1 55.44 1 84 C43.57 84 86.14 84 130 84 C130 84.33 130 84.66 130 85 C87.43 85 44.86 85 1 85 C1 85.66 1 86.32 1 87 C1.66 87 2.32 87 3 87 C3 87.66 3 88.32 3 89 C44.91 89 86.82 89 130 89 C130 89.33 130 89.66 130 90 C87.43 90 44.86 90 1 90 C-0.1242871 115.79173569 -0.1242871 115.79173569 5 125 C4.505 125.45375 4.01 125.9075 3.5 126.375 C1.77390663 127.87635519 1.77390663 127.87635519 2 130 C4.64 130.33 7.28 130.66 10 131 C10 132.32 10 133.64 10 135 C4.34629352 133.51926735 -0.06088999 131.17236888 -3.13979721 126.13530064 C-6.08818744 119.94436889 -6.55221558 114.67727826 -6.45410156 107.88061523 C-6.45468567 106.80640823 -6.45526978 105.73220123 -6.45587158 104.6254425 C-6.4531025 101.10282176 -6.42206504 97.58106523 -6.390625 94.05859375 C-6.38315846 91.6052344 -6.37746748 89.15186905 -6.37347412 86.69850159 C-6.35825051 80.26223085 -6.31899639 73.826325 -6.2746582 67.39019775 C-6.23363512 60.81421849 -6.21544806 54.2381799 -6.1953125 47.66210938 C-6.1524994 34.77458452 -6.08506357 21.88731173 -6 9 C-5.34 9 -4.68 9 -4 9 C-4 7.02 -4 5.04 -4 3 C-3.01 3 -2.02 3 -1 3 C-0.67 2.01 -0.34 1.02 0 0 Z " fill="#2B2D72" transform="translate(46,106)"/>
<path d="M0 0 C26.73 0 53.46 0 81 0 C81.495 4.95 81.495 4.95 82 10 C83.44145379 13.56841981 84.2952956 14.63391979 87.70703125 16.40625 C88.73183594 16.7671875 89.75664062 17.128125 90.8125 17.5 C97.13203087 19.93000099 101.17715878 22.26573817 105 28 C105.22705078 30.26831055 105.22705078 30.26831055 105.1953125 32.88671875 C105.18564453 34.2934082 105.18564453 34.2934082 105.17578125 35.72851562 C105.15064453 37.19321289 105.15064453 37.19321289 105.125 38.6875 C105.11597656 39.67556641 105.10695312 40.66363281 105.09765625 41.68164062 C105.0740843 44.12133765 105.04118022 46.56054697 105 49 C88.19776179 49.02332875 71.39552861 49.04097906 54.59327793 49.05181217 C46.79224164 49.05697518 38.99121539 49.06401797 31.19018555 49.07543945 C24.39323687 49.08538615 17.59629546 49.09185339 10.79933971 49.09408849 C7.19821869 49.09539563 3.59711848 49.09848164 -0.0039959 49.10573006 C-4.01756602 49.11374364 -8.03109964 49.11399115 -12.04467773 49.11352539 C-13.84865273 49.1189183 -13.84865273 49.1189183 -15.68907166 49.12442017 C-16.77587219 49.1230455 -17.86267273 49.12167084 -18.98240662 49.12025452 C-19.93277518 49.12117631 -20.88314375 49.1220981 -21.86231136 49.12304783 C-24 49 -24 49 -25 48 C-25.18173161 45.11016951 -25.27834069 42.26715521 -25.3125 39.375 C-25.35600586 38.18197266 -25.35600586 38.18197266 -25.40039062 36.96484375 C-25.47458064 30.01381015 -23.66353592 25.81573797 -18.8125 20.6875 C-15.04282733 18.4256964 -11.30232185 17.71236702 -7 17 C-11.625 21.875 -11.625 21.875 -15 23 C-16.16953416 25.42383077 -16.16953416 25.42383077 -17 28 C-17.33 28.66 -17.66 29.32 -18 30 C-18.33 35.94 -18.66 41.88 -19 48 C17.3 48 53.6 48 91 48 C91.47703199 34.8179161 91.47703199 34.8179161 86.484375 23.26953125 C82.72144834 20.10833386 79.70697887 18.53488441 75 17 C71.94054193 14.35774076 69.26033605 11.89558414 68 8 C68 5.69 68 3.38 68 1 C45.56 1 23.12 1 0 1 C0 0.67 0 0.34 0 0 Z " fill="#0863D8" transform="translate(71,51)"/>
<path d="M0 0 C7.26 0 14.52 0 22 0 C22 10.35288005 22 10.35288005 17.98046875 14.515625 C15.02408027 16.73145858 11.80738315 17.75856492 8.34375 18.96875 C4.67653551 20.58232438 3.18706983 22.68411994 1 26 C0.11360611 28.65918166 -0.17989025 30.48064641 -0.31640625 33.23046875 C-0.35451416 33.95387451 -0.39262207 34.67728027 -0.43188477 35.42260742 C-0.49653931 36.79122925 -0.49653931 36.79122925 -0.5625 38.1875 C-0.706875 41.095625 -0.85125 44.00375 -1 47 C-6.94 47 -12.88 47 -19 47 C-19.0825 44.174375 -19.165 41.34875 -19.25 38.4375 C-19.28641602 37.56150146 -19.32283203 36.68550293 -19.36035156 35.78295898 C-19.44130789 30.00176291 -18.38003987 26.71759576 -15 22 C-13.32421875 20.5390625 -13.32421875 20.5390625 -11.6875 19.625 C-7.16824953 16.64795595 -3.56441995 12.77387781 -1 8 C-0.67 5.36 -0.34 2.72 0 0 Z " fill="#0AB3F8" transform="translate(71,52)"/>
<path d="M0 0 C7.59 0 15.18 0 23 0 C23.02578125 1.94003906 23.0515625 3.88007813 23.078125 5.87890625 C23.13441555 8.44012636 23.19176267 11.00132341 23.25 13.5625 C23.26417969 14.83931641 23.27835938 16.11613281 23.29296875 17.43164062 C23.52674757 26.4321251 24.42530495 31.61916211 31 38 C27.43765572 38.08741124 23.87558892 38.14052896 20.3125 38.1875 C18.80139648 38.22520508 18.80139648 38.22520508 17.25976562 38.26367188 C10.80507721 38.32757968 7.23599106 37.77370662 2.25 33.5 C-0.54026727 30.15167928 -0.11574599 26.50583249 -0.09765625 22.36328125 C-0.09443359 21.06455078 -0.09121094 19.76582031 -0.08789062 18.42773438 C-0.07953531 17.05598892 -0.07107037 15.68424413 -0.0625 14.3125 C-0.05748335 12.92903805 -0.05292073 11.54557437 -0.04882812 10.16210938 C-0.03702538 6.77472104 -0.01908967 3.3873551 0 0 Z " fill="#09B4FA" transform="translate(47,196)"/>
<path d="M0 0 C34.98 0 69.96 0 106 0 C106 29 106 29 99 37 C95.8554338 39.09637746 95.15521392 39.24889851 91.57710266 39.24050903 C90.22044495 39.24463303 90.22044495 39.24463303 88.83638 39.24884033 C87.35176521 39.2380545 87.35176521 39.2380545 85.8371582 39.22705078 C84.27105301 39.22748886 84.27105301 39.22748886 82.67330933 39.22793579 C79.21571598 39.22654033 75.75833704 39.21096877 72.30078125 39.1953125 C69.9061037 39.19158314 67.51142462 39.18873581 65.116745 39.18673706 C58.8087443 39.17909453 52.50083546 39.15944064 46.19287109 39.1373291 C39.75815066 39.11688407 33.32341541 39.10773821 26.88867188 39.09765625 C14.25907536 39.0761954 1.62954256 39.04243544 -11 39 C-11 38.67 -11 38.34 -11 38 C-9.23140373 37.99453156 -9.23140373 37.99453156 -7.42707825 37.98895264 C3.68221908 37.95201816 14.79123882 37.89426228 25.90032482 37.81609726 C31.61170289 37.77658106 37.32292581 37.74441281 43.03442383 37.72900391 C48.54592895 37.71386477 54.05700767 37.67946764 59.56832314 37.63169098 C61.67142342 37.61684892 63.77458456 37.60895737 65.87773705 37.60811615 C68.82284429 37.60575328 71.76676663 37.57872797 74.71166992 37.54589844 C75.5820137 37.5509288 76.45235748 37.55595917 77.34907532 37.56114197 C81.28015794 37.49330372 83.49983657 37.29134992 86.95552063 35.27838135 C95.13522736 26.16286201 91.58927377 12.08960817 92 1 C61.64 1 31.28 1 0 1 C0 0.67 0 0.34 0 0 Z " fill="#076AE0" transform="translate(70,196)"/>
<path d="M0 0 C0.92055679 0.00202423 1.84111359 0.00404846 2.78956604 0.00613403 C3.75370926 0.00438171 4.71785248 0.00262939 5.71121216 0.00082397 C8.91508252 -0.00359636 12.11889819 -0.00065591 15.32276917 0.00271606 C17.5385489 0.00204308 19.75432856 0.0010731 21.97010803 -0.00018311 C26.62070924 -0.00166033 31.27129128 0.00049525 35.92189026 0.00515747 C41.89784521 0.01085477 47.87375526 0.00757589 53.84970856 0.00158501 C58.4271631 -0.00201996 63.00460691 -0.00088232 67.58206177 0.0017128 C69.7861939 0.00238225 71.99032699 0.00155303 74.19445801 -0.00076675 C77.26915588 -0.00329222 80.34377994 0.00054581 83.41847229 0.00613403 C84.33902908 0.0041098 85.25958588 0.00208557 86.20803833 0 C92.48975688 0.02126628 92.48975688 0.02126628 93.60401917 1.13552856 C93.60401917 11.03552856 93.60401917 20.93552856 93.60401917 31.13552856 C60.27401917 31.13552856 26.94401917 31.13552856 -7.39598083 31.13552856 C-7.39598083 0.02503854 -7.39598083 0.02503854 0 0 Z M-3.39598083 5.13552856 C-3.39598083 13.38552856 -3.39598083 21.63552856 -3.39598083 30.13552856 C24.32401917 30.13552856 52.04401917 30.13552856 80.60401917 30.13552856 C80.60401917 21.55552856 80.60401917 12.97552856 80.60401917 4.13552856 C79.94401917 4.13552856 79.28401917 4.13552856 78.60401917 4.13552856 C78.10901917 2.65052856 78.10901917 2.65052856 77.60401917 1.13552856 C67.63362889 1.04286968 57.66334095 0.9717845 47.69260788 0.92827988 C43.06282601 0.9074003 38.43333859 0.87907608 33.8037262 0.83377075 C29.33630223 0.79032593 24.86916157 0.76639424 20.40154266 0.75601959 C18.69665822 0.74862574 16.99178937 0.73418724 15.28702545 0.71260834 C12.89983552 0.68359162 10.51381786 0.6795717 8.1264801 0.681427 C7.42085434 0.6670459 6.71522858 0.65266479 5.98822021 0.6378479 C0.87231322 0.68090133 0.55779524 1.18175249 -3.39598083 5.13552856 Z " fill="#5D2BCB" transform="translate(68.39598083496094,14.864471435546875)"/>
<path d="M0 0 C1.11761719 0.02707031 1.11761719 0.02707031 2.2578125 0.0546875 C4.08909701 0.10164351 5.91971649 0.17338348 7.75 0.25 C7.42854004 0.78915039 7.10708008 1.32830078 6.77587891 1.88378906 C5.53523049 4.74537032 5.43127467 6.99502744 5.3359375 10.109375 C5.29726562 11.22441406 5.25859375 12.33945312 5.21875 13.48828125 C5.17234375 15.22658203 5.17234375 15.22658203 5.125 17 C5.08632812 18.17433594 5.04765625 19.34867188 5.0078125 20.55859375 C4.91360508 23.45547204 4.83071617 26.35271441 4.75 29.25 C-0.86 29.25 -6.47 29.25 -12.25 29.25 C-12.35778981 25.16596399 -12.43722647 21.0847632 -12.5 17 C-12.53351563 15.84113281 -12.56703125 14.68226562 -12.6015625 13.48828125 C-12.61445312 12.37324219 -12.62734375 11.25820313 -12.640625 10.109375 C-12.66157227 9.08295898 -12.68251953 8.05654297 -12.70410156 6.99902344 C-11.51698762 -0.18748352 -6.17968658 -0.28387253 0 0 Z " fill="#B15BF8" transform="translate(77.25,15.75)"/>
<path d="M0 0 C0.33 0 0.66 0 1 0 C1.84090394 3.65741873 2.12744569 7.03684877 2.13371277 10.78645325 C2.13797775 11.94291855 2.14224274 13.09938385 2.14663696 14.29089355 C2.14618378 15.55075073 2.14573059 16.81060791 2.14526367 18.10864258 C2.14825762 19.45598951 2.1516607 20.80333559 2.15544128 22.15068054 C2.16426211 25.80370227 2.16661861 29.45670056 2.16725707 33.10973191 C2.16796874 35.39448873 2.17010528 37.67923963 2.17275429 39.96399498 C2.18200183 47.94190218 2.18608997 55.91979269 2.18530273 63.89770508 C2.18470231 71.32249526 2.19524871 78.74721271 2.2110464 86.17198449 C2.2241434 92.55602509 2.22948571 98.94004198 2.22884732 105.3240959 C2.22859294 109.13273947 2.23141088 112.94131838 2.24202538 116.7499485 C2.25174262 120.33440822 2.25176082 123.91874197 2.24450874 127.50320625 C2.24297303 129.43631733 2.25128454 131.36942848 2.25994873 133.30252075 C2.22752713 142.30688942 1.8175574 149.68649926 -4 157 C-7.42060966 160.24057757 -10.47319833 161.73670651 -15 163 C-13.28736579 161.10708851 -11.80427001 159.88958821 -9.5625 158.625 C-5.98781259 156.35812506 -3.66372751 154.17415199 -2.39670753 150.02381325 C-0.83261292 142.61361727 -0.6937847 135.38409022 -0.68115234 127.82958984 C-0.67183522 126.42911207 -0.66166395 125.02863976 -0.65071106 123.62817383 C-0.62359784 119.85617053 -0.60831763 116.08420418 -0.59528303 112.3121295 C-0.57957 108.35897339 -0.55280619 104.40589184 -0.5272522 100.45278931 C-0.48060825 92.98038147 -0.44379489 85.50795938 -0.41057932 78.0354811 C-0.37225582 69.52266839 -0.32287271 61.00993084 -0.27259517 52.49718165 C-0.16948945 34.99817559 -0.08016012 17.49912591 0 0 Z " fill="#615F8A" transform="translate(181,78)"/>
<path d="M0 0 C4.93725772 1.97490309 9.24610775 4.3206416 13.8125 7 C14.60076172 7.45117188 15.38902344 7.90234375 16.20117188 8.3671875 C17.31782227 9.02074219 17.31782227 9.02074219 18.45703125 9.6875 C19.13741455 10.08324219 19.81779785 10.47898438 20.51879883 10.88671875 C21.00759521 11.25410156 21.4963916 11.62148437 22 12 C22 12.66 22 13.32 22 14 C19.08763461 15.65353259 16.16941396 17.29644905 13.25 18.9375 C12.425 19.40607422 11.6 19.87464844 10.75 20.35742188 C9.95078125 20.80537109 9.1515625 21.25332031 8.328125 21.71484375 C7.5949707 22.12855225 6.86181641 22.54226074 6.10644531 22.96850586 C4 24 4 24 0 25 C0 16.75 0 8.5 0 0 Z " fill="#DAD2F1" transform="translate(102,135)"/>
<path d="M0 0 C7.59 0 15.18 0 23 0 C23 0.33 23 0.66 23 1 C17.39 1 11.78 1 6 1 C6.06001414 5.54307061 6.14707489 10.08287014 6.25 14.625 C6.26417969 15.91019531 6.27835938 17.19539063 6.29296875 18.51953125 C6.50856309 26.84147292 7.09917691 30.82054669 12.75 36.875 C13.1625 37.24625 13.575 37.6175 14 38 C6.7829605 37.63303189 6.7829605 37.63303189 3.0625 34.625 C-0.16866577 30.5126072 -0.11987717 27.45187159 -0.09765625 22.36328125 C-0.09443359 21.06455078 -0.09121094 19.76582031 -0.08789062 18.42773438 C-0.07953531 17.05598892 -0.07107037 15.68424413 -0.0625 14.3125 C-0.05748335 12.92903805 -0.05292073 11.54557437 -0.04882812 10.16210938 C-0.03702538 6.77472104 -0.01908967 3.3873551 0 0 Z " fill="#088CF3" transform="translate(47,196)"/>
<path d="M0 0 C-5.75 5 -5.75 5 -8 5 C-8.309375 5.78375 -8.61875 6.5675 -8.9375 7.375 C-10 10 -10 10 -11 12 C-11.15004973 13.3734635 -11.24838006 14.7528526 -11.31640625 16.1328125 C-11.35830078 16.93847656 -11.40019531 17.74414062 -11.44335938 18.57421875 C-11.50233398 19.83685547 -11.50233398 19.83685547 -11.5625 21.125 C-11.62727539 22.39923828 -11.62727539 22.39923828 -11.69335938 23.69921875 C-11.79954236 25.79928223 -11.90028497 27.89961948 -12 30 C-13.98 30 -15.96 30 -18 30 C-18.10876982 27.14479219 -18.18766466 24.29379439 -18.25 21.4375 C-18.28351562 20.63763672 -18.31703125 19.83777344 -18.3515625 19.01367188 C-18.44775129 13.12210834 -17.37767018 9.8464919 -14 5 C-10.52897854 1.52897854 -4.93015361 -2.46507681 0 0 Z " fill="#0489F3" transform="translate(64,69)"/>
<path d="M0 0 C2.05078125 0.03255208 4.1015625 0.06510417 6.15234375 0.09765625 C5.50491211 0.79979248 4.85748047 1.50192871 4.19042969 2.2253418 C1.86514971 5.50240443 1.62424618 7.09241267 1.54296875 11.0546875 C1.51074219 12.16650391 1.47851562 13.27832031 1.4453125 14.42382812 C1.43113281 15.57431641 1.41695313 16.72480469 1.40234375 17.91015625 C1.37269531 19.07998047 1.34304687 20.24980469 1.3125 21.45507812 C1.24194666 24.33600634 1.18917646 27.21613203 1.15234375 30.09765625 C-0.16765625 30.09765625 -1.48765625 30.09765625 -2.84765625 30.09765625 C-2.87231371 25.98593065 -2.89049584 21.87423347 -2.90258789 17.76245117 C-2.90762705 16.36270397 -2.91445841 14.96296205 -2.9230957 13.56323242 C-2.93517945 11.55519848 -2.94035432 9.54712668 -2.9453125 7.5390625 C-2.95054932 6.32935791 -2.95578613 5.11965332 -2.96118164 3.87329102 C-2.8088334 0.14845842 -2.8088334 0.14845842 0 0 Z " fill="#733BF4" transform="translate(63.84765625,14.90234375)"/>
<path d="M0 0 C1.65 0 3.3 0 5 0 C5.89700997 8.40531561 5.89700997 8.40531561 3.875 12 C1.16391663 14.93700699 -0.32452797 15.92494755 -4.375 16.375 C-5.674375 16.189375 -5.674375 16.189375 -7 16 C-6.36771484 15.27296875 -6.36771484 15.27296875 -5.72265625 14.53125 C-1.70062863 9.61018091 -0.22715451 6.3603264 0 0 Z " fill="#038DF8" transform="translate(71,52)"/>
<path d="M0 0 C0.66 0 1.32 0 2 0 C2.66 1.32 3.32 2.64 4 4 C4.33 3.34 4.66 2.68 5 2 C5.99 2 6.98 2 8 2 C8.99 3.98 9.98 5.96 11 8 C10.505 8.45375 10.01 8.9075 9.5 9.375 C7.77390663 10.87635519 7.77390663 10.87635519 8 13 C10.64 13.33 13.28 13.66 16 14 C16 15.32 16 16.64 16 18 C11.13890523 16.72685613 7.27890825 14.84995407 4 11 C0 3.86419753 0 3.86419753 0 0 Z " fill="#2F2F6A" transform="translate(40,223)"/>
<path d="M0 0 C0.66 0.33 1.32 0.66 2 1 C1.57847656 1.44730469 1.15695313 1.89460938 0.72265625 2.35546875 C0.17480469 2.96003906 -0.37304688 3.56460938 -0.9375 4.1875 C-1.48277344 4.77917969 -2.02804688 5.37085937 -2.58984375 5.98046875 C-5.60518146 10.29883328 -5.26433324 15.70456129 -5.5625 20.8125 C-5.60568359 21.50537109 -5.64886719 22.19824219 -5.69335938 22.91210938 C-5.79861453 24.60788686 -5.89972863 26.30392052 -6 28 C-6.33 28 -6.66 28 -7 28 C-7.10876982 25.14479219 -7.18766466 22.29379439 -7.25 19.4375 C-7.28351562 18.63763672 -7.31703125 17.83777344 -7.3515625 17.01367188 C-7.4616633 10.26999814 -5.84554874 6.15042896 -1.25 1.0625 C-0.8375 0.711875 -0.425 0.36125 0 0 Z " fill="#1162C0" transform="translate(53,71)"/>
<path d="M0 0 C-1.8125 2.5 -1.8125 2.5 -4 5 C-4.99 5 -5.98 5 -7 5 C-7.33 6.65 -7.66 8.3 -8 10 C-9.26950234 6.9993581 -8.98068499 5.94815444 -7.8125 2.8125 C-6 0 -6 0 -3.9375 -0.9375 C-2 -1 -2 -1 0 0 Z " fill="#E54651" transform="translate(84,123)"/>
<path d="M0 0 C0.33 0 0.66 0 1 0 C1.54330269 6.65545792 0.77304004 10.45834744 -3 16 C-4.32 15.67 -5.64 15.34 -7 15 C-6.38125 14.401875 -5.7625 13.80375 -5.125 13.1875 C-2.1708618 10.14647538 -0.7851279 7.98213365 -0.375 3.8125 C-0.189375 1.9253125 -0.189375 1.9253125 0 0 Z " fill="#0C7FE5" transform="translate(71,52)"/>
<path d="M0 0 C0.66 0.33 1.32 0.66 2 1 C-0.15634036 3.15634036 -2.37098712 4.47793991 -5 6 C-5.66 5.34 -6.32 4.68 -7 4 C-1.7265625 0.77734375 -1.7265625 0.77734375 0 0 Z " fill="#E34F5C" transform="translate(120,150)"/>
</svg>
